<svg width="16" height="16" viewBox="0 0 16 16" fill="none" xmlns="http://www.w3.org/2000/svg">
<g clip-path="url(#clip0_1585_11414)">
<path fill-rule="evenodd" clip-rule="evenodd" d="M14.364 3.4064C14.5514 3.59393 14.6568 3.84824 14.6568 4.1134C14.6568 4.37857 14.5514 4.63287 14.364 4.8204L6.86864 12.3157C6.76959 12.4148 6.65199 12.4934 6.52256 12.547C6.39313 12.6006 6.25441 12.6282 6.11431 12.6282C5.97421 12.6282 5.83549 12.6006 5.70606 12.547C5.57663 12.4934 5.45903 12.4148 5.35998 12.3157L1.63598 8.5924C1.54047 8.50015 1.46428 8.38981 1.41188 8.26781C1.35947 8.1458 1.33188 8.01458 1.33073 7.8818C1.32957 7.74902 1.35487 7.61734 1.40516 7.49445C1.45544 7.37155 1.52969 7.2599 1.62358 7.16601C1.71747 7.07211 1.82913 6.99786 1.95202 6.94758C2.07492 6.8973 2.2066 6.872 2.33938 6.87315C2.47216 6.8743 2.60338 6.90189 2.72538 6.9543C2.84739 7.00671 2.95773 7.08289 3.04998 7.1784L6.11398 10.2424L12.9493 3.4064C13.0422 3.31347 13.1524 3.23976 13.2738 3.18946C13.3952 3.13917 13.5253 3.11328 13.6566 3.11328C13.788 3.11328 13.9181 3.13917 14.0395 3.18946C14.1608 3.23976 14.2711 3.31347 14.364 3.4064Z" fill="#7B92D2"/>
</g>
<defs>
<clipPath id="clip0_1585_11414">
<rect width="16" height="16" fill="white"/>
</clipPath>
</defs>
</svg>
