<svg width="854" height="646" viewBox="0 0 854 646" fill="none" xmlns="http://www.w3.org/2000/svg">
<g style="mix-blend-mode:multiply">
<path d="M463.629 8.16629H465.404C468.756 9.44814 469.545 10.73 469.644 14.3783C469.644 14.6741 469.644 14.9699 469.644 15.2658C469.446 16.2518 469.939 16.7448 470.925 16.942C474.376 17.9281 477.926 18.5197 481.575 18.7169C488.773 19.2099 495.971 18.7169 503.169 18.3225C512.043 17.9281 520.819 18.0267 529.595 19.8015C537.187 21.3792 544.484 23.8443 551.978 25.915C560.26 28.2814 568.74 29.2675 577.319 28.38C586.883 27.394 596.251 25.1261 605.618 22.7596C621.395 18.7169 637.171 14.6741 653.441 13.5895C665.47 12.8007 677.5 13.5895 689.333 16.1532C691.009 16.5476 690.614 16.942 689.826 17.9281C685.093 23.5485 678.979 26.9996 672.077 28.9717C662.118 31.9298 651.863 32.127 641.51 31.634C638.354 31.4368 635.199 31.2396 632.044 31.0423C634.805 29.7605 637.566 29.3661 640.425 29.0703C647.426 28.1828 654.427 28.0842 661.329 26.901C664.189 26.408 667.048 25.915 669.908 24.7317C669.612 24.4359 669.513 24.3373 669.316 24.2387C668.922 24.0415 668.626 23.8443 668.231 23.6471C659.258 18.5197 649.595 17.6322 639.636 18.9141C630.368 20.0973 621.493 22.8582 612.619 25.7177C604.731 28.1828 596.842 30.8451 588.658 32.62C578.305 34.7893 568.149 33.8033 557.894 31.7326C546.85 29.5633 536.004 26.408 524.862 24.6331C511.55 22.5624 498.436 22.5624 485.42 26.408C483.645 26.901 482.265 26.6052 481.279 25.4219C478.419 21.8722 474.672 22.0694 470.728 22.5624C469.643 22.7596 469.446 23.0554 469.841 24.0415C471.024 27.6898 473.785 29.4647 477.433 30.0563C483.152 31.0423 488.773 30.0563 494.393 29.5633C500.999 28.8731 507.507 28.2814 514.114 29.0703C515.396 29.2675 516.677 29.0703 518.255 29.9577C514.804 30.5493 511.747 30.9437 508.592 30.9437C502.676 30.9437 496.76 30.4507 490.942 30.7465C484.138 31.0423 477.433 32.0284 471.024 34.4935C470.63 34.6907 469.939 34.6907 469.841 35.1837C469.841 35.7753 470.432 36.0711 470.827 36.2683C472.602 37.353 474.672 37.2544 476.644 37.2544C480.589 37.2544 484.533 36.4656 488.477 36.86C489.068 36.86 489.956 36.6628 490.054 37.5502C490.054 38.339 489.364 38.5362 488.773 38.832C488.378 39.0292 487.984 39.0292 487.589 39.1279C484.533 39.8181 481.377 40.0153 478.321 40.4097C475.067 40.8041 471.911 41.1985 468.855 42.3818C467.671 42.8748 467.474 43.3678 468.263 44.4525C470.235 47.0161 472.897 47.5092 475.856 46.9175C479.997 46.1287 483.744 44.1566 487.885 43.3678C489.857 42.9734 491.731 42.4804 493.999 43.3678C487.491 47.805 480.096 48.0022 472.996 49.284C531.764 50.7631 590.433 53.7212 649.299 51.4533C648.905 51.1575 648.412 51.1575 648.018 51.0589C633.424 49.6784 619.324 46.2273 606.012 39.9167C604.731 39.3251 604.632 38.9306 605.519 37.846C609.759 32.8172 615.38 31.0423 621.69 30.9437C622.085 30.9437 622.775 30.6479 622.972 31.2396C623.169 31.8312 622.775 32.3242 622.282 32.7186C621.296 33.5074 620.014 33.606 618.831 34.0991C616.76 34.9865 616.366 36.5642 617.943 38.2404C620.704 41.0999 624.156 42.6776 627.902 43.6636C633.621 45.2413 639.439 45.5371 645.257 45.4385C654.131 45.4385 662.907 45.1427 671.781 45.0441C673.852 45.0441 676.021 44.9455 678.289 45.4385C675.922 48.4952 673.162 50.5659 669.809 52.1435C663.301 55.2003 656.202 55.7919 649.102 56.3835C642.299 56.9751 635.396 57.2709 628.79 59.243C627.508 59.6374 626.226 59.736 624.944 59.5388C617.253 58.6514 609.464 58.0598 601.674 57.5667C580.178 56.1863 558.683 55.6933 537.088 55.6933C516.283 55.6933 495.576 55.6933 474.771 55.6933C472.339 55.6933 470.695 56.8765 469.841 59.243C467.474 65.8495 467.178 72.7517 467.178 79.654C467.08 88.8241 467.671 97.8957 467.376 107.066C467.376 108.643 467.77 108.643 469.052 108.249C476.546 105.685 484.04 103.122 490.843 99.1775C491.731 98.6845 492.125 98.7831 492.224 99.7691C492.421 101.445 491.731 102.727 490.449 103.713C488.773 104.995 486.899 105.685 484.927 106.376C481.082 107.756 477.137 108.643 473.39 110.32C471.517 111.109 469.742 112.095 468.362 113.574C468.066 113.869 467.573 114.362 467.671 114.757C467.671 115.25 468.46 115.151 468.855 115.25C472.503 115.94 476.151 115.546 479.701 114.461C485.124 112.686 489.857 109.531 494.492 106.376C499.718 102.826 504.845 99.1775 510.86 97.0082C511.945 96.6138 512.438 96.811 513.029 97.8957C517.565 106.77 521.213 116.039 524.171 125.603C530.975 147.493 534.919 169.679 532.553 192.752C531.468 203.697 528.51 214.149 523.087 223.813C521.509 226.573 519.636 228.743 516.48 229.63C514.705 230.123 513.029 230.912 511.353 231.602C504.549 234.166 497.647 236.237 491.139 239.589C485.716 242.449 480.983 245.998 477.926 251.52C476.644 253.788 477.039 255.662 479.011 257.042C480.884 258.324 482.166 259.704 481.673 262.071C482.363 262.071 482.856 261.874 483.349 261.676C488.477 259.606 493.703 257.929 499.027 256.253C511.747 252.408 524.763 249.45 537.384 245.21C547.54 241.758 557.302 237.617 565.881 230.912C566.965 230.025 567.557 229.039 567.853 227.757C569.43 219.178 570.121 210.6 570.712 201.923C571.501 189.893 571.797 177.863 573.572 165.932C574.755 157.748 576.431 149.663 580.277 142.267C580.671 141.577 580.868 140.788 581.657 140.295C581.46 141.774 581.361 143.056 581.164 144.338C580.08 154.889 588.362 162.58 598.814 160.41C600.195 160.115 600.491 160.608 600.491 161.791C600.491 164.848 600.491 167.806 600.491 170.862C600.491 181.117 599.899 191.273 600.195 201.528C600.195 203.697 599.406 204.782 597.237 205.078C595.659 205.275 594.279 204.881 592.997 204.092C591.419 203.204 589.94 202.12 588.362 201.232C586.785 200.246 585.207 199.457 583.334 199.26C582.545 199.26 581.855 199.26 581.361 200.049C578.305 204.486 576.924 209.416 577.713 214.84C578.601 220.953 581.657 226.179 585.01 231.109C591.123 240.082 598.814 247.97 604.04 257.732C604.435 258.521 604.829 258.127 605.224 257.732C606.801 256.056 608.576 254.38 610.055 252.605C614.591 247.182 618.93 241.561 623.465 236.138C628.1 230.518 633.523 225.686 640.129 222.334C641.214 221.742 641.806 221.939 642.397 222.925C643.383 224.601 643.186 226.278 642.299 227.757C641.411 229.236 640.327 230.715 639.34 232.095C637.96 233.969 637.27 235.941 637.073 238.307C636.678 244.421 637.27 250.534 638.059 256.648C640.031 271.931 642.299 287.116 641.411 302.597C641.017 310.288 643.383 317.19 648.215 323.304C653.145 329.516 657.779 335.925 662.118 342.531C668.133 351.702 673.852 361.069 680.951 369.549C688.84 379.113 698.305 386.706 710.039 391.143C710.927 391.537 711.814 391.537 712.8 391.439C715.758 390.847 718.223 389.27 720.689 387.593C722.562 386.311 724.337 384.931 726.21 383.748C728.774 382.17 731.436 381.973 734 383.551V388.185C732.817 392.03 729.957 393.904 726.309 394.989C725.816 395.087 725.323 395.383 724.83 395.482C723.745 395.679 723.449 396.27 723.449 397.355C722.365 412.639 719.9 427.725 715.561 442.417C710.828 458.687 704.025 474.069 693.573 487.577C676.218 509.96 653.342 521.103 625.043 521.399C613.704 521.497 602.561 519.821 591.616 517.06C589.743 516.567 588.362 517.06 587.376 518.638C586.39 520.314 585.01 521.399 582.939 521.103C585.799 525.737 586.193 526.526 586.39 532.146C586.588 538.063 586.39 543.979 586.39 549.796C586.39 551.078 586.785 551.275 587.968 551.177C598.42 549.895 609.069 549.895 619.62 549.402C620.113 549.402 620.803 549.106 621.099 549.599C621.395 550.092 620.902 550.585 620.606 551.078C619.324 552.853 617.45 553.445 615.38 553.642C611.633 554.036 607.886 553.642 604.04 553.346C601.378 553.248 598.716 553.248 596.251 554.332C594.574 555.121 594.476 555.713 596.053 556.699C597.73 557.783 599.603 557.882 601.477 557.29C603.153 556.797 604.731 556.206 606.407 555.811C608.773 555.22 610.055 556.107 610.745 558.276C611.14 559.46 610.844 559.755 609.661 559.558C606.308 559.065 602.956 559.361 599.603 559.953C594.87 560.741 590.137 562.023 585.207 561.826C584.221 561.826 584.024 562.418 583.728 563.009C580.375 569.419 576.727 575.729 572.684 581.744C565.092 592.788 556.218 602.549 544.977 609.945C544.089 610.536 543.202 610.931 542.117 611.128C534.13 612.508 526.045 613.593 517.959 614.48C501.394 616.255 484.631 617.044 467.967 617.241C451.205 617.439 434.442 617.439 417.679 617.044C401.114 616.748 384.549 616.551 367.983 616.452C358.32 616.452 348.755 616.551 339.092 616.65C336.43 616.65 333.768 616.847 330.809 616.946C335.049 620.101 340.275 621.284 346.093 620.89C351.319 620.495 356.545 619.411 361.771 619.608C364.236 619.608 366.701 619.904 369.265 620.89C368.377 621.087 367.884 621.284 367.293 621.383C359.503 623.256 351.516 624.045 343.431 624.144C326.077 624.341 308.821 621.974 291.664 619.805C277.366 617.932 262.97 616.058 248.574 615.664C235.46 615.269 222.543 616.551 210.02 620.495C202.329 622.96 194.638 625.327 186.749 627.2C176.889 629.567 166.93 630.651 156.774 628.778C138.631 625.327 123.742 610.635 120.291 592.59C119.995 590.914 120.093 589.238 119.305 587.66V585.885C123.643 583.815 128.08 582.237 133.01 582.04C139.42 581.744 145.533 583.42 151.449 585.787C159.732 589.041 167.62 593.281 176.1 595.943C176.199 595.943 176.298 596.239 176.396 596.337C174.523 596.929 172.748 596.929 170.973 596.633C166.634 595.943 162.592 594.168 158.647 592.295C153.816 590.027 148.984 587.562 143.758 586.378C137.25 584.801 131.531 586.083 126.798 591.111C126.108 591.802 125.911 592.492 126.108 593.478C126.798 596.83 128.08 599.788 130.348 602.352C133.997 606.592 138.927 609.156 143.561 612.114C144.35 612.607 144.547 612.114 144.744 611.522C145.533 609.156 144.35 607.48 142.772 606.099C140.899 604.324 138.631 603.042 136.462 601.563C134.588 600.281 132.715 598.901 131.334 597.028C129.461 594.464 129.855 593.379 132.912 592.492C133.503 592.295 134.095 592.196 134.687 592.097C139.025 591.407 143.265 591.802 147.505 592.886C148.688 593.182 149.773 593.576 150.661 594.365C150.956 594.661 151.548 594.957 151.252 595.45C151.055 595.844 150.463 595.647 150.069 595.647C147.604 595.253 145.237 594.76 142.772 594.365C140.011 593.971 137.25 593.379 134.292 594.365C136.462 597.422 139.124 599.69 142.181 601.465C151.351 606.888 161.606 607.973 171.959 608.564C172.748 608.564 172.945 608.17 172.945 607.48C172.945 605.803 171.86 604.324 169.987 603.733C168.508 603.24 167.029 603.042 165.55 602.747C164.761 602.549 164.366 602.155 164.465 601.366C164.465 600.38 165.352 600.479 165.944 600.577C166.634 600.676 167.325 600.873 168.015 601.169C171.565 602.352 174.818 604.127 178.072 605.902C178.861 606.395 179.551 606.395 180.34 605.902C182.312 604.62 184.284 603.24 185.961 601.662C190.496 597.619 194.342 592.886 198.385 588.35C207.456 577.997 218.697 573.757 232.206 575.532C234.967 575.926 237.432 575.236 239.897 574.152C241.869 573.264 243.545 571.982 245.123 570.602C249.461 566.855 253.997 563.502 260.111 563.601C260.899 563.601 260.998 563.108 260.604 562.516C260.111 561.629 259.223 561.432 258.336 561.333C257.054 561.234 255.871 561.333 254.589 561.432C252.518 561.629 250.546 562.122 248.475 561.629C247.194 561.333 246.503 560.643 246.405 559.361C246.306 558.079 246.701 557.192 248.081 556.6C251.138 555.318 254.194 555.614 257.251 556.403C259.913 556.994 262.576 557.487 265.337 557.487C266.717 557.487 267.21 557.093 266.914 555.515C265.238 547.824 260.998 542.401 253.8 539.246C248.081 536.781 241.968 535.992 235.854 535.696C226.29 535.302 216.725 535.992 207.259 536.584C200.258 536.978 193.257 537.372 186.256 536.682C183.298 536.386 180.34 535.992 177.382 534.809C177.974 534.316 178.565 534.316 179.058 534.118C185.073 532.541 191.285 532.146 197.497 532.048C215.246 531.752 232.896 533.527 250.546 534.414C252.814 534.513 255.18 534.71 257.448 534.414C252.715 532.442 247.687 531.259 242.658 530.371C231.023 528.301 219.19 527.906 207.456 527.709C191.285 527.512 175.114 528.202 158.943 527.709C154.309 527.512 149.576 527.413 144.843 526.723C145.04 526.526 145.04 526.427 145.139 526.329C145.73 526.132 146.322 525.934 147.012 525.737C155.196 523.469 163.578 523.272 171.959 523.371C181.129 523.469 190.201 523.962 199.371 524.357C213.866 525.047 228.36 525.441 242.855 524.652C244.235 524.652 244.728 524.357 244.433 522.779C242.066 506.016 233.488 493.395 219.387 484.422C209.921 478.407 199.667 474.463 189.215 470.716C177.185 466.476 164.859 462.828 153.224 457.602C146.125 454.447 139.321 450.7 133.306 445.671C132.024 444.586 132.024 443.995 133.306 443.009C134.588 442.023 136.067 442.023 137.546 442.318C140.11 442.713 142.378 443.699 144.843 444.389C145.829 444.685 146.618 444.586 147.407 443.797C152.041 439.064 156.873 434.331 161.408 429.5C183.594 406.328 204.104 381.677 223.331 356.04C252.518 317.092 278.747 276.171 303.693 234.462C304.877 232.391 304.778 230.912 303.003 229.236C301.919 228.151 300.637 227.362 299.454 226.376C298.073 225.292 298.27 224.306 299.848 223.615C301.031 223.122 302.214 222.827 303.2 222.136C305.896 220.493 308.295 220.854 310.399 223.221C314.934 214.84 323.513 210.994 330.612 205.176C327.753 203.895 325.09 203.796 322.33 204.388C317.498 205.374 313.652 208.233 309.708 210.895C306.849 212.769 303.989 214.741 300.834 216.023C299.355 216.615 297.974 217.305 296.298 217.206C296.298 216.516 296.693 216.121 296.988 215.727C300.144 211.093 304.581 207.839 309.412 205.176C314.54 202.317 320.062 200.148 325.386 197.584C326.372 197.091 326.964 196.499 327.358 195.513C332.486 183.582 334.852 170.961 336.134 158.143C337.317 145.817 337.613 133.393 338.106 121.068C338.501 110.714 338.994 100.459 340.078 90.2046C340.374 87.6409 340.473 84.9786 341.163 82.4149C343.135 83.4009 344.022 84.9786 344.515 86.7534C345.008 88.4297 345.304 90.106 345.304 91.7822C345.304 95.9236 345.206 100.164 345.107 104.305C345.107 106.869 345.107 106.869 347.572 106.869C353.686 106.869 359.898 106.869 366.011 106.869C367.49 106.869 367.884 107.263 367.687 108.643C367.589 109.531 367.687 110.517 367.687 111.503C367.391 127.082 368.377 142.563 369.758 157.945C369.889 159.523 369.133 160.312 367.49 160.312C360.588 160.312 353.686 160.312 346.783 160.312C345.896 160.312 345.206 160.312 345.008 161.495C344.22 166.327 344.91 170.862 347.967 174.905C349.446 176.779 351.22 178.553 352.305 180.723C353.488 182.991 355.165 183.089 357.235 182.991C360.785 182.695 363.151 180.526 365.321 178.06C368.279 174.708 371.927 173.327 376.364 174.116C377.449 174.314 378.139 174.708 378.632 175.694C380.111 178.553 381.689 181.314 383.069 184.174C389.775 197.288 395.691 210.797 398.846 225.292C400.917 234.856 401.804 244.519 399.339 254.183C396.973 263.55 391.747 270.847 383.464 275.875C383.365 275.777 383.267 275.678 383.168 275.58C385.83 272.326 387.901 268.677 389.479 264.733C393.423 254.478 394.606 243.829 394.113 232.983C393.62 223.517 391.944 214.248 387.802 205.571C385.732 201.232 383.267 197.19 379.323 194.231C379.323 194.034 379.125 193.936 378.928 194.034C378.928 194.034 378.928 194.33 378.928 194.429C379.125 194.724 379.224 195.02 379.421 195.316C386.521 207.149 388.295 219.868 385.633 233.279C383.365 244.717 378.336 255.169 372.519 265.128C372.026 265.916 371.237 266.705 371.927 267.691C372.519 268.677 373.603 268.677 374.59 268.677C376.167 268.677 377.745 268.381 379.323 268.381C380.407 268.381 381.59 268.381 382.083 269.466C382.576 270.748 382.379 272.03 381.393 273.114C380.21 274.396 379.027 275.58 377.745 276.664C373.603 280.312 368.673 282.383 363.152 282.778C362.56 282.778 361.377 282.383 361.475 283.764C362.067 289.877 362.658 295.99 363.152 302.104C363.152 303.09 363.645 303.287 364.631 303.09C371.237 301.907 377.745 300.23 384.154 298.16C398.747 293.427 412.355 286.525 425.765 279.228C426.652 278.735 426.849 278.045 427.047 277.256C427.638 274.199 428.23 271.142 428.92 268.086C430.498 261.282 432.174 254.38 436.414 248.661C436.907 247.97 436.71 247.379 436.414 246.689C435.428 243.928 434.048 241.265 432.273 238.899C430.005 235.842 427.638 232.786 425.272 229.729C423.596 227.56 422.117 225.193 420.933 222.629C420.44 221.643 420.637 221.249 421.821 221.347C423.004 221.347 424.187 221.347 425.37 221.347C426.356 221.347 426.751 221.052 426.751 220.066C426.948 217.601 427.244 215.135 427.441 212.67C428.92 188.611 423.497 166.129 411.27 145.324C410.974 144.831 410.481 144.338 410.481 143.549C412.946 143.155 415.214 143.056 416.595 145.916C417.679 142.267 420.046 139.901 423.004 137.929C426.061 135.858 429.413 134.379 432.667 132.9C437.794 130.632 443.119 128.561 447.951 125.505C449.726 124.321 451.599 123.138 452.979 121.265C452.684 121.166 452.486 120.969 452.191 120.969C451.698 120.969 451.205 120.87 450.81 120.87C447.063 120.772 443.612 121.758 440.161 123.237C435.329 125.406 430.892 128.364 426.258 131.026C421.426 133.689 416.496 136.055 411.073 137.041C409.002 137.436 406.833 137.83 404.368 137.337C409.495 134.379 414.524 131.914 419.651 129.745C430.301 125.11 441.147 121.068 451.599 115.842C452.881 115.151 453.374 114.362 453.571 113.081C454.064 108.348 454.557 103.713 454.952 98.9803C456.233 83.2037 456.628 67.3285 457.515 51.4533C458.206 39.3251 459.29 27.1968 461.854 15.3644C462.347 12.9979 462.544 10.4342 463.924 8.26489L463.629 8.16629ZM342.839 228.151C342.839 228.151 342.839 228.151 342.938 228.151C342.741 230.715 342.543 233.279 342.346 235.842C342.248 237.223 342.149 238.603 342.543 240.082C343.036 241.66 344.121 242.153 345.6 242.054C345.994 242.054 346.487 242.054 346.29 241.364C345.304 238.702 345.896 235.941 345.896 233.18C345.896 231.011 345.008 229.236 342.938 228.25L342.839 228.151ZM470.038 119.687C470.038 119.687 469.939 119.49 469.841 119.49C469.644 119.588 469.742 119.786 469.841 119.884C471.714 125.801 472.996 132.013 477.433 137.239C477.63 134.872 477.433 132.9 477.039 130.928C476.053 126.392 474.081 122.349 470.038 119.786V119.687ZM586.587 252.506C586.587 252.506 586.489 252.309 586.39 252.21C586.193 252.408 586.292 252.506 586.39 252.605C587.278 255.76 588.362 258.718 589.841 261.676C591.025 263.944 592.405 266.015 594.673 267.395C595.265 267.79 595.856 268.579 596.448 268.086C597.039 267.593 596.448 266.804 596.448 266.114C596.448 266.114 596.448 266.015 596.448 265.916C594.081 260.789 590.827 256.253 586.686 252.408L586.587 252.506ZM452.782 464.307H452.684C452.388 461.94 452.486 459.574 453.275 457.306C453.867 455.433 454.459 453.559 454.952 451.686C455.445 449.615 455.543 447.643 454.163 445.77C453.374 444.685 452.782 444.488 452.289 445.967C450.514 451.291 449.923 456.616 451.303 462.138C451.5 462.927 451.599 464.011 452.782 464.307ZM573.375 376.747C573.375 376.747 573.375 376.747 573.276 376.747C572.684 372.211 572.191 367.577 569.726 363.534C569.135 362.647 568.346 361.956 567.36 361.463C566.867 361.266 566.374 360.773 565.881 361.069C565.486 361.365 565.782 361.956 565.881 362.351C566.472 368.168 568.543 373.099 573.375 376.747ZM376.759 519.821C376.759 519.821 376.759 519.821 376.66 519.821C376.66 516.764 377.449 514.003 378.632 511.144C379.816 508.186 379.52 507.89 376.364 508.186C374.491 508.383 372.124 508.481 371.336 510.256C370.547 512.13 371.927 514.102 373.11 515.68C374.195 517.159 375.477 518.44 376.66 519.821H376.759ZM575.149 408.793C575.149 408.793 575.248 408.99 575.347 408.99C575.347 408.99 575.347 408.892 575.347 408.793C575.347 408.596 575.149 408.596 575.051 408.793C575.051 408.596 575.149 408.3 575.051 408.103C573.572 402.976 572.684 397.651 571.304 392.523C570.416 389.27 569.628 385.917 567.557 383.058C566.67 381.776 565.585 380.79 563.613 381.283C565.881 384.734 566.965 388.481 568.05 392.326C569.036 395.679 569.726 399.229 571.107 402.482C572.093 404.849 572.98 407.215 575.051 408.793H575.149ZM384.549 371.62C386.028 371.521 386.323 370.239 386.718 369.253C387.408 367.084 387.309 364.816 387.014 362.548C385.042 351.11 380.703 340.658 374.688 330.798C374.294 330.206 373.899 329.516 372.913 329.121C372.913 330.206 372.913 331.192 373.11 332.079C373.505 334.446 374.195 336.812 374.984 339.08C377.646 346.673 381.295 353.969 383.661 361.661C384.647 364.914 385.633 368.267 384.647 371.718C384.647 371.718 384.647 371.718 384.549 371.718C384.549 371.718 384.549 371.62 384.549 371.521V371.62ZM498.83 418.555C498.83 418.555 498.83 418.555 498.732 418.555H498.83C498.337 419.146 498.83 419.738 499.027 420.33C500.309 423.584 501.591 426.739 502.873 429.993C508.493 444.29 513.621 458.785 520.326 472.688C520.819 473.674 521.213 474.562 521.706 475.449C520.523 468.448 519.044 461.645 517.368 454.841C514.015 441.332 509.972 428.021 498.83 418.456V418.555ZM594.476 468.941C595.166 469.237 595.856 468.941 596.546 468.744C605.224 466.575 613.408 463.124 621.197 458.884C635.594 450.995 648.116 440.642 660.146 429.697C660.343 429.5 660.442 429.401 660.343 429.105C659.751 428.81 659.456 429.303 659.16 429.5C653.244 433.543 647.032 437.29 640.82 440.839C625.142 449.812 608.971 458.095 594.476 468.941C594.476 468.941 594.476 468.941 594.476 468.843V468.941ZM425.863 434.43C425.272 434.134 425.173 434.726 424.976 435.022C423.004 437.881 421.426 441.037 420.046 444.192C415.214 455.433 412.651 467.364 410.087 479.295C407.129 493.099 404.762 507.101 400.325 520.511C400.325 520.61 400.226 520.807 400.621 520.906C403.086 517.454 405.058 513.609 406.636 509.665C411.27 498.522 413.735 486.69 416.2 474.956C419.06 461.349 421.525 447.643 425.863 434.43C425.863 434.43 425.863 434.233 425.863 434.134C425.863 434.233 425.863 434.43 425.863 434.529V434.43ZM480.391 271.833C480.983 272.227 481.476 271.931 482.068 271.833C495.379 268.086 508.789 264.437 521.903 260C535.116 255.464 548.033 250.14 559.767 242.449C560.359 242.054 561.148 241.758 561.444 241.068C560.753 240.772 560.162 241.167 559.57 241.364C552.076 243.928 544.484 246.097 536.99 248.365C526.045 251.52 515.198 254.676 504.549 258.915C495.971 262.268 487.885 266.607 480.391 272.03C480.391 272.03 480.391 272.03 480.391 271.931V271.833ZM494.886 411.16C501.591 407.314 507.113 402.187 512.043 396.369C518.748 388.481 524.073 379.606 529.693 371.028C535.116 362.647 540.737 354.265 548.033 347.264C549.315 346.081 550.203 346.18 551.09 347.659C551.485 348.25 551.682 348.941 552.076 349.532C552.766 350.518 553.654 350.716 554.837 350.321C554.64 350.025 554.541 349.828 554.443 349.631C551.78 346.081 551.583 342.531 554.048 338.883C554.541 338.193 554.837 337.404 555.232 336.714C556.316 334.249 556.02 331.882 554.936 329.516C554.344 328.332 553.358 328.037 552.175 327.938C551.09 327.938 550.893 328.727 550.499 329.417C545.371 340.264 538.962 350.223 531.764 359.787C523.284 371.225 513.917 382.071 505.634 393.707C501.69 399.229 497.746 404.849 494.59 410.962C494.59 411.061 494.492 411.16 494.393 411.357C494.492 411.357 494.689 411.357 494.787 411.357L494.886 411.16ZM639.636 456.517C640.129 457.01 640.721 456.715 641.313 456.616C644.369 456.221 647.032 454.841 649.595 453.263C652.652 451.39 655.709 449.418 658.765 447.544C660.935 446.263 663.301 445.572 665.865 445.868C668.133 446.164 668.231 446.361 666.95 448.235C658.765 461.152 648.313 472.097 636.678 481.957C624.057 492.803 610.351 502.269 596.941 512.13C596.152 512.721 595.265 513.116 594.673 514.102C608.872 517.06 623.071 518.243 637.368 515.975C653.539 513.412 667.738 506.805 679.867 495.663C692.882 483.633 701.264 468.646 706.983 452.08C712.011 437.487 714.378 422.4 715.068 406.92C715.068 405.243 715.364 403.567 715.068 401.792C714.772 401.989 714.575 401.989 714.476 402.088C703.63 411.455 691.699 419.344 679.768 427.133C667.738 435.022 655.61 442.811 644.566 452.179C642.989 453.559 641.313 454.94 639.735 456.32C639.735 456.32 639.932 456.419 639.932 456.517L639.636 456.32V456.517ZM496.957 594.858C496.957 594.858 496.858 594.661 496.76 594.661C497.154 593.872 497.943 593.281 497.844 592.295C497.548 592.295 497.351 592.295 497.154 592.295C491.632 593.083 486.998 591.309 482.955 587.364C481.575 586.083 480.194 584.801 478.518 583.815C473.785 580.857 470.334 577.011 470.235 570.898C470.235 568.038 468.953 565.277 467.671 562.418C466.488 563.897 465.601 565.376 464.319 566.362C463.826 566.756 463.234 567.348 462.643 566.756C462.051 566.263 461.854 565.573 462.248 564.686C463.136 562.812 463.826 560.84 464.516 558.967C465.897 555.22 467.08 551.473 467.178 547.529C467.178 544.373 467.178 544.373 470.432 544.275C470.531 544.275 470.63 544.275 470.827 544.275C471.418 544.176 471.714 544.373 471.714 544.965C472.207 549.402 474.574 553.149 476.743 556.896C477.828 558.671 478.912 560.347 480.095 562.122C480.884 563.305 480.293 564.39 479.602 565.179C478.814 566.066 478.025 565.08 477.433 564.39C476.743 563.7 476.25 562.911 475.658 562.122C475.363 561.727 475.067 561.333 474.574 561.432C473.883 561.432 473.883 562.122 473.686 562.615C473.588 563.009 473.588 563.404 473.489 563.798C473.39 567.841 477.335 572.574 481.476 573.461C482.856 573.757 484.04 573.461 485.223 572.475C493.21 565.77 500.605 558.375 507.31 550.289C508 549.402 508.691 548.712 509.775 548.317C511.156 547.726 511.55 546.542 511.451 545.162C511.057 538.95 508 536.09 501.591 536.09C493.801 536.09 486.012 536.781 478.321 538.063C475.461 538.556 471.418 537.372 469.052 535.302C469.348 535.302 469.545 535.203 469.742 535.104C478.616 534.02 487.589 533.034 496.562 532.639C497.548 532.639 498.041 532.344 497.844 531.259C497.746 529.977 498.239 528.794 498.83 527.709C499.52 526.329 500.309 525.047 500.901 523.568C501.493 522.286 501.394 520.906 500.309 519.821C499.225 518.736 498.041 518.243 496.365 518.835C485.716 522.286 474.672 524.554 463.629 526.23C440.95 529.78 418.172 531.357 395.296 532.639C381.689 533.33 368.082 533.921 354.474 534.611C353.883 534.611 352.995 534.316 352.798 535.104C352.601 535.795 353.094 536.485 353.587 536.978C354.179 537.668 354.967 538.063 355.855 538.358C357.531 538.95 359.306 539.147 361.081 539.049C363.546 539.049 365.912 539.049 368.378 539.049C368.969 539.049 369.857 538.851 370.054 539.542C370.251 540.232 369.364 540.528 368.772 540.823C367.884 541.415 366.997 541.908 366.011 542.401C369.166 542.697 372.223 542.697 375.28 542.697C375.871 542.697 376.759 543.091 377.055 542.401C377.449 541.612 377.055 540.823 376.66 540.035C376.266 539.344 375.576 538.95 374.984 538.457C374.392 537.964 373.604 537.767 373.308 536.682C384.746 539.542 396.184 540.725 407.819 540.922C405.946 541.612 404.072 542.204 402.1 542.697C390.563 545.852 379.421 551.078 366.701 550.388C369.166 553.543 372.026 556.107 375.083 558.375C375.674 558.769 376.266 558.474 376.759 558.375C378.928 557.685 381.097 557.29 383.365 556.994C390.07 556.206 396.775 556.403 403.48 556.304C408.213 556.304 412.848 555.811 417.186 553.543C419.454 552.459 421.821 551.374 424.286 550.782C429.413 549.501 433.85 551.571 436.02 556.304C435.724 556.304 435.428 556.403 435.231 556.501C428.23 556.797 421.426 558.079 414.623 559.46C406.833 560.939 399.043 562.713 391.056 563.108C388.69 563.206 386.422 563.108 383.562 563.108C385.732 564.291 387.605 564.981 389.479 565.474C405.847 570.207 421.919 568.63 437.597 562.418C440.161 561.432 441.64 561.53 443.514 563.502C445.288 565.376 447.359 566.855 449.528 568.63C419.158 571.686 389.38 575.926 359.405 579.378C359.996 579.969 360.588 579.871 361.179 579.969C372.322 581.448 383.562 582.04 394.902 582.04C395.987 582.04 396.775 582.336 397.466 583.124C400.72 586.674 404.466 589.632 408.706 591.999C422.905 599.887 438.189 601.465 453.966 599.591C460.473 598.802 466.685 597.225 472.799 594.76C474.278 594.168 475.56 593.774 477.039 594.957C478.025 595.746 479.307 595.746 480.589 595.943C482.856 596.239 485.026 596.042 487.294 595.943C487.491 596.436 487.294 596.83 487.096 597.225C485.519 601.662 486.209 602.549 490.843 602.648C492.815 602.648 494.787 602.352 496.562 603.24C496.957 603.437 497.548 603.634 497.548 604.127C497.548 604.62 497.055 604.916 496.661 605.113C494.689 606.296 492.52 606.395 490.35 606.494C487.885 606.592 485.519 606.592 483.152 607.282C481.673 607.677 480.391 608.466 479.8 609.945C478.912 612.015 479.208 612.508 481.476 612.508C495.28 612.804 507.507 608.466 518.65 600.38C527.721 593.872 533.736 584.702 540.244 575.926C541.033 574.842 541.526 573.659 542.314 572.574C542.906 571.686 542.906 571.095 542.314 570.207C541.033 568.531 539.751 566.756 538.272 565.277C534.13 560.939 529.595 557.29 523.678 555.614C519.734 554.529 515.987 554.924 512.931 557.783C509.479 561.037 506.225 564.587 502.873 567.939C500.704 570.207 498.436 572.574 496.957 575.433C495.379 578.589 494.787 581.645 497.351 584.702C498.337 585.984 499.619 585.688 500.704 585.294C501.887 584.899 501.295 583.815 501.098 583.026C501.098 582.829 500.999 582.533 500.901 582.336C500.802 581.843 500.506 581.251 500.901 580.857C501.394 580.561 501.69 581.152 502.084 581.35C506.521 584.406 510.958 587.364 516.184 588.942C516.579 589.041 516.875 589.238 516.875 589.731C516.677 591.21 515.1 592.492 513.621 592.492C512.043 592.492 510.465 592.492 508.888 592.59C504.845 592.788 500.802 593.774 496.76 594.168L496.957 594.858ZM310.99 250.83C310.99 247.182 310.694 243.632 309.708 240.181C309.314 238.8 308.426 238.012 307.046 237.814C305.567 237.617 305.271 238.603 304.778 239.491C289.79 266.311 273.915 292.539 256.561 317.979C241.573 339.968 225.698 361.168 208.541 381.48C206.372 384.044 204.695 386.41 205.287 389.96C205.386 390.65 205.287 391.34 205.287 392.03C205.188 402.088 204.4 412.146 203.315 422.203C201.934 435.318 200.357 448.432 199.371 461.645C199.371 462.729 199.568 463.025 200.653 463.124C204.597 463.518 208.64 464.11 212.584 464.899C221.359 466.673 229.938 469.237 238.812 470.913C239.897 471.111 240.39 471.111 240.686 469.927C243.052 461.546 246.503 453.461 250.546 445.77C254.983 436.994 259.815 428.415 263.167 419.147C268.689 404.257 272.042 388.875 275.789 373.493C279.437 358.505 282.888 343.419 288.311 328.924C293.833 313.838 299.947 298.949 304.778 283.566C308.131 272.917 310.99 262.169 311.286 250.929L310.99 250.83ZM277.563 477.421C278.845 477.421 280.029 477.421 281.31 477.421C282.789 477.52 283.184 476.928 283.381 475.548C285.945 459.377 288.509 443.206 290.974 426.936C293.044 413.427 294.425 399.919 295.214 386.311C295.214 385.621 295.214 385.227 294.523 384.931C293.241 384.438 292.354 383.452 291.861 382.269C291.368 381.184 290.678 380.987 289.593 381.085C283.874 381.381 279.437 383.945 276.577 388.974C274.31 392.819 273.225 397.158 272.338 401.496C270.858 408.892 269.675 416.484 266.717 423.584C262.576 433.641 257.744 443.304 253.701 453.362C251.335 459.18 249.264 465.194 248.377 471.406C248.18 472.984 248.673 473.379 249.954 473.477C251.434 473.576 253.011 473.872 254.49 474.167C262.083 475.351 269.675 477.125 277.465 477.421H277.563ZM559.669 475.153C563.12 473.773 565.881 471.801 568.247 469.434C572.191 465.589 574.952 460.954 577.417 456.123C581.263 448.629 584.32 440.741 588.658 433.444C595.265 422.302 600.984 410.667 606.111 398.736C618.042 370.929 626.423 342.137 633.03 312.654C633.424 310.682 632.833 309.598 630.959 308.316C629.875 307.626 629.283 307.527 628.79 309.105C625.142 321.036 621 332.868 616.464 344.504C603.153 378.226 585.897 409.681 562.627 437.585C562.035 438.276 561.739 439.064 561.739 439.952C561.444 447.643 561.148 455.235 560.556 462.927C560.26 466.871 560.063 470.913 559.767 475.153H559.669ZM314.047 479.295C316.019 478.9 317.695 478.605 319.371 478.309C320.752 478.013 321.837 478.309 322.921 479.393C323.513 480.084 324.4 480.577 325.189 481.07C325.879 481.563 326.274 481.365 326.274 480.478C326.274 479.098 326.471 477.816 326.57 476.435C327.95 455.531 328.344 434.627 328.64 413.625C328.936 396.27 329.035 378.818 329.232 361.365C329.429 347.166 329.823 332.967 330.415 318.768C331.303 298.061 332.683 277.354 335.049 256.648C337.12 238.307 339.98 220.066 343.924 202.021C344.614 198.964 344.614 199.063 347.769 198.57C354.08 197.683 359.7 195.218 363.743 189.992C365.518 187.724 366.307 185.259 365.222 182.3C364.828 182.498 364.532 182.695 364.236 182.892C361.179 185.259 358.123 187.724 354.967 189.992C352.108 192.062 349.051 193.936 345.403 194.33C344.515 194.429 344.318 195.02 344.022 195.711C340.867 202.81 338.501 210.304 336.627 217.798C331.401 238.012 329.133 258.718 327.457 279.524C325.682 301.907 324.992 324.388 323.907 346.87C323.316 359.097 322.625 371.225 321.048 383.353C320.653 386.213 319.963 389.072 320.062 391.932C320.653 404.849 321.048 417.766 320.851 430.683C320.653 441.53 320.358 452.376 318.878 463.124C318.09 468.547 317.399 473.97 314.145 479.098L314.047 479.295ZM647.623 389.861C647.623 402.778 647.032 412.54 645.848 422.203C645.651 423.584 645.947 424.175 647.525 424.274C652.652 424.57 657.484 423.879 662.118 421.71C665.372 420.133 668.429 418.259 671.781 416.977C673.852 416.188 674.246 415.202 674.246 413.033C673.95 395.284 669.908 378.522 662.808 362.351C657.582 350.518 651.173 339.278 645.454 327.741C643.482 323.698 643.482 323.698 638.946 323.797C637.763 323.797 637.566 324.191 637.861 325.276C638.65 328.135 639.242 330.995 639.932 333.854C644.566 353.378 647.82 373 647.623 389.96V389.861ZM295.805 610.733C296.397 610.142 296.988 610.339 297.58 610.339C300.144 610.24 302.707 610.733 305.37 610.832C307.145 610.832 308.919 611.029 310.596 610.142C311.187 609.846 311.779 609.353 311.68 608.663C311.68 608.071 310.892 607.973 310.497 607.775C306.652 605.902 302.806 604.127 299.256 601.859C294.129 598.704 289.889 594.661 287.72 588.843C287.424 587.956 286.832 587.857 286.043 587.956C276.479 588.843 266.914 587.956 257.448 587.364C250.842 586.97 244.137 586.378 237.53 587.562C237.037 587.562 236.446 587.562 236.347 588.055C236.249 588.646 236.84 588.942 237.333 589.238C239.207 590.125 241.277 589.928 243.249 589.83C244.926 589.83 246.503 589.632 248.18 590.027C249.067 590.224 249.954 590.618 250.25 591.802C249.659 591.802 249.264 591.802 248.87 591.802C244.433 591.802 239.897 591.802 235.46 591.802C234.276 591.802 234.079 592.196 234.276 593.182C234.572 594.661 234.868 596.042 235.164 597.521C235.558 600.084 234.967 601.366 232.797 602.747C231.91 603.338 230.924 603.535 230.135 604.324C231.614 605.507 233.093 605.705 234.769 605.31C235.756 605.014 236.643 604.719 237.629 604.521C239.009 604.324 239.798 605.31 240.094 607.085C240.39 608.761 239.108 608.367 238.319 608.466C236.347 608.663 234.474 608.268 232.6 607.775C231.318 607.48 230.037 607.085 228.755 606.987C226.881 606.888 225.797 608.663 225.895 611.325C225.994 613.199 227.571 612.213 228.36 612.213C234.868 612.114 241.376 612.213 247.785 612.706C262.181 613.79 276.38 615.959 290.776 617.044C298.862 617.636 306.947 618.03 314.934 616.847C317.892 616.452 320.752 615.861 323.71 614.579C323.02 614.086 322.428 614.283 321.837 614.283C318.09 614.283 314.441 614.283 310.694 614.382C307.243 614.382 303.891 614.283 300.538 613.199C298.862 612.706 297.186 612.015 296.002 610.438L295.805 610.733ZM456.135 327.839C457.022 304.865 457.91 282.383 458.797 259.902C458.896 256.943 459.093 253.887 459.093 250.929C459.093 249.154 458.008 247.97 456.233 248.069C454.163 248.069 455.149 249.745 455.149 250.534C455.149 259.113 454.853 267.691 454.163 276.171C453.473 285.538 452.092 294.906 451.106 304.273C448.542 328.135 446.767 352.096 445.19 376.057C443.514 401.989 442.232 427.824 441.147 453.756C440.26 475.449 439.372 497.142 438.485 518.835C438.485 519.328 438.485 519.821 438.485 520.215C438.682 521.694 439.865 522.582 441.541 522.483C443.415 522.483 442.528 521.004 442.528 520.215C442.823 506.509 443.218 492.902 444.894 479.295C446.965 462.532 448.345 445.671 449.726 428.711C451.007 412.244 452.191 395.777 453.177 379.311C454.163 361.956 455.05 344.602 455.938 327.741L456.135 327.839ZM633.326 338.587C633.326 338.587 633.03 339.08 632.931 339.278C632.241 340.559 631.649 341.94 631.058 343.222C626.423 353.969 625.043 365.309 624.353 376.846C623.367 392.819 623.761 408.793 621.493 424.668C621.296 425.852 621.592 426.147 622.874 426.147C627.804 426.147 632.833 426.049 637.763 426.147C639.34 426.147 639.833 425.654 640.031 424.175C642.101 405.736 642.989 387.298 641.115 368.76C640.228 359.491 638.65 350.321 635.101 341.545C634.706 340.559 634.41 339.475 633.523 338.587H633.326ZM547.442 481.563C547.639 482.056 547.836 482.45 548.033 482.746C549.808 486.69 548.724 488.859 544.681 490.141C542.61 490.733 540.441 491.029 538.272 491.324C535.215 491.817 532.06 492.113 529.299 493.691C528.411 494.184 526.932 494.874 527.327 495.86C527.721 496.846 529.397 496.55 530.383 496.255C531.862 495.86 533.046 494.776 534.426 494.085C535.215 493.691 535.905 493.592 536.497 494.381C536.99 495.071 537.384 495.762 536.793 496.649C535.905 498.029 534.623 498.818 532.947 498.818C531.468 498.818 529.989 498.818 528.51 498.621C527.721 498.621 526.834 498.522 526.045 498.818C524.96 499.213 524.664 500.199 524.763 501.283C524.862 502.467 525.848 501.974 526.439 501.875C542.117 501.382 557.401 498.818 572.389 494.381C591.025 488.859 608.28 480.774 623.465 468.547C623.958 468.153 624.451 467.857 624.846 467.166C599.209 473.181 573.966 479.886 547.442 481.464V481.563ZM203.216 616.748C204.695 616.255 205.78 615.959 206.963 615.565C222.345 610.339 230.037 599.394 229.938 583.223C229.938 582.04 229.544 581.645 228.459 581.35C224.515 580.561 220.669 580.265 216.725 581.054C209.921 582.434 204.794 586.477 200.061 591.21C195.427 595.943 191.384 601.169 186.454 605.606C179.551 612.015 171.565 615.269 162 613.692C160.225 613.396 158.352 613.001 156.182 612.508C158.253 615.664 160.718 617.537 163.873 618.227C168.606 619.312 173.044 618.03 177.284 616.354C183.397 613.987 188.919 610.536 194.736 607.874C196.314 607.085 197.99 606.395 199.765 606.296C200.16 606.296 200.751 606 201.047 606.592C201.244 607.085 201.047 607.48 200.653 607.874C199.864 608.86 198.681 609.55 197.695 610.339C197.399 610.635 196.807 610.931 197.103 611.522C197.3 612.015 197.892 612.213 198.385 612.311C199.075 612.41 199.075 611.917 199.371 611.522C200.258 609.747 201.441 609.649 202.625 611.226C203.808 612.804 203.907 614.48 203.216 616.551V616.748ZM631.452 302.498C631.452 302.498 631.748 302.498 631.847 302.498C632.142 302.104 632.438 301.611 632.734 301.216C636.087 295.695 637.368 289.68 637.566 283.369C638.157 268.874 635.002 255.07 629.875 241.561C629.677 241.068 629.677 240.477 629.086 240.279C613.802 255.267 572.882 306.147 570.712 312.95C574.361 310.781 577.516 308.316 580.474 305.555C587.771 298.949 593.588 291.258 599.406 283.369C605.618 274.988 611.633 266.409 619.225 259.211C620.902 257.535 622.676 255.957 624.747 254.478C624.057 258.915 624.156 259.113 628.395 260.197C628.395 260.197 628.494 260.197 628.593 260.197C630.861 260.789 631.255 261.381 631.255 263.648C631.255 275.974 631.255 288.299 631.255 300.625C631.255 301.216 631.058 301.907 631.452 302.498ZM198.582 411.061C198.483 407.215 198.385 402.384 197.399 397.651C197.3 397.059 197.497 396.27 196.906 396.073C196.215 395.876 195.821 396.665 195.427 397.059C190.299 402.187 186.947 408.3 184.876 415.202C182.707 422.302 181.721 429.598 180.932 436.895C180.242 442.91 179.551 448.826 178.96 454.841C178.861 455.827 178.565 456.912 180.34 456.616C181.819 456.32 183.2 456.912 184.58 457.701C185.369 458.194 186.256 458.687 187.144 458.884C189.905 459.771 190.989 459.18 191.778 456.419C195.92 441.924 198.582 427.133 198.779 411.061H198.582ZM307.638 295.695C306.947 296.188 306.849 296.878 306.652 297.371C303.2 305.161 300.341 313.148 297.777 321.233C292.946 336.615 289.002 352.293 283.578 367.478C283.184 368.563 283.381 368.76 284.564 368.76C287.424 368.661 289.889 367.38 292.255 365.9C294.622 364.421 296.988 362.844 299.848 362.745C301.13 362.745 301.524 362.351 301.524 360.97C301.524 354.561 302.214 348.25 303.496 342.038C305.074 333.953 307.638 326.065 308.722 317.881C309.708 310.485 309.511 303.09 307.736 295.695H307.638ZM255.476 496.255C256.758 496.748 258.04 497.241 259.42 497.635C272.14 501.481 285.353 502.467 298.566 502.861C313.948 503.354 329.33 502.565 344.614 500.495C349.15 499.903 353.686 499.114 358.419 497.832C357.728 497.536 357.334 497.438 357.038 497.241C350.037 495.071 342.839 494.184 335.641 493.691C325.485 493.001 315.23 493.198 305.074 493.691C293.636 494.283 282.296 495.071 270.858 495.762C265.83 496.057 260.801 496.156 255.673 496.156L255.476 496.255ZM498.534 218.981C503.465 217.403 508.099 218.685 512.635 220.361C513.424 220.657 514.212 220.756 515.001 221.052C515.889 221.347 516.48 221.15 516.875 220.164C520.622 211.389 524.171 202.514 526.439 193.245C528.707 183.878 529.989 174.511 528.214 164.848C527.622 161.396 526.636 158.044 524.763 154.593C524.763 155.875 524.763 156.762 524.763 157.649C525.355 168.496 523.58 178.849 518.847 188.611C515.396 195.612 510.86 201.824 506.127 207.937C503.465 211.487 500.704 215.037 498.436 218.981H498.534ZM525.157 605.803C529.89 604.324 533.933 601.761 537.483 598.507C545.075 591.506 550.006 582.829 553.555 573.264C559.866 555.811 561.739 537.767 559.965 519.328C559.866 517.849 560.063 515.975 559.274 514.891C558.387 513.707 556.415 514.693 554.936 514.398C553.358 514.2 553.457 514.891 553.654 516.074C556.711 530.667 556.612 545.063 552.372 559.46C548.822 571.391 542.61 582.04 535.314 592.097C531.961 596.732 528.51 601.268 525.059 605.902L525.157 605.803ZM362.658 512.13C360.292 508.876 357.432 506.805 353.883 505.819C348.558 504.34 343.332 505.129 338.106 506.016C331.894 507.101 325.682 508.383 319.371 508.087C309.708 507.693 300.045 506.608 290.481 506.016C282.494 505.523 274.507 505.03 266.421 506.115C265.534 506.214 264.646 506.312 264.548 507.397C264.548 508.383 265.435 508.383 266.027 508.58C271.253 510.256 276.676 511.242 282.099 511.834C293.143 513.017 304.088 512.82 315.131 512.524C330.809 512.031 346.487 511.144 362.658 512.13ZM682.332 409.582C685.191 406.722 688.544 405.243 691.995 403.764C694.164 402.877 696.333 401.891 698.404 400.905C700.573 399.82 702.545 398.44 704.025 396.468C704.518 395.876 704.715 395.383 704.025 394.791C700.573 391.735 697.221 388.579 693.77 385.621C689.135 381.677 684.008 378.916 678.092 377.437C676.613 377.043 676.021 377.24 676.12 378.916C676.218 380.494 676.12 382.072 676.12 383.649C676.415 392.622 678.289 401.299 682.332 409.582ZM478.912 223.615C478.912 223.615 478.616 223.32 478.518 223.32C471.024 222.136 463.53 220.559 455.938 220.066C448.148 219.573 440.654 220.657 433.752 224.7C432.667 225.39 432.568 225.883 433.357 226.771C435.625 229.433 438.485 230.912 441.64 231.898C451.106 234.955 460.868 235.152 470.63 233.969C473.39 233.673 476.151 233.18 478.814 231.799C474.574 229.137 474.672 227.461 478.814 223.615H478.912ZM481.969 116.335C484.04 123.533 486.11 130.731 488.082 137.929C492.224 152.621 495.576 167.51 495.971 182.892C496.168 190.583 495.576 198.176 494.097 205.768C493.999 206.458 493.999 207.444 492.815 207.247C491.731 207.149 491.435 206.458 491.435 205.472C491.435 204.683 491.632 203.993 491.632 203.204C491.632 202.021 492.125 200.838 491.731 199.655C491.534 198.964 491.041 198.669 490.35 198.767C489.463 198.767 489.857 199.556 489.857 199.95C489.857 200.542 490.054 201.134 490.054 201.725C490.646 206.754 490.252 211.586 485.913 215.135C485.124 215.826 484.335 216.516 483.448 217.206C484.631 218.291 485.913 218.587 487.294 218.291C489.364 217.798 490.942 216.713 492.421 215.333C497.45 210.698 500.901 204.979 503.465 198.669C504.944 195.02 506.028 191.273 505.732 187.329C505.634 185.752 505.239 184.272 503.859 182.793C503.859 184.371 503.859 185.554 503.859 186.738C503.859 189.597 504.253 192.555 503.662 195.415C503.366 196.795 502.676 197.978 501.295 198.57C500.309 199.063 499.718 198.964 499.619 197.584C499.323 188.315 498.929 178.948 497.943 169.679C496.661 157.354 494.393 145.225 490.153 133.492C487.984 127.477 485.321 121.758 481.673 116.335H481.969ZM567.458 498.029C566.374 498.424 565.289 498.818 564.303 499.311C554.936 503.255 545.864 507.988 536.398 511.735C527.623 515.186 518.65 518.342 508.986 516.567C508.099 516.37 508.099 516.961 508.198 517.553C508.395 519.229 509.282 520.412 510.761 521.103C512.043 521.694 513.424 522.089 514.705 522.483C516.382 523.075 517.861 523.864 518.255 525.737C518.452 526.625 518.945 526.329 519.438 526.131C521.706 525.343 524.073 524.652 526.341 523.864C537.384 519.919 548.231 515.581 558.288 509.369C561.148 507.594 563.909 505.622 565.979 502.96C567.064 501.579 567.951 500.002 567.36 497.931L567.458 498.029ZM274.31 526.329C274.31 526.329 274.901 526.526 275.098 526.526C294.03 526.92 312.864 528.892 331.796 529.287C342.445 529.484 352.995 529.583 363.546 527.808C367.096 527.216 370.547 526.427 374.097 524.751C371.533 524.751 369.364 524.751 367.096 524.751C351.615 524.751 336.233 524.455 320.752 524.258C308.328 524.061 296.002 523.962 283.578 525.047C280.522 525.343 277.563 525.54 274.211 526.329H274.31ZM367.49 520.018C367.49 520.018 366.603 519.624 366.208 519.525C364.039 518.933 361.87 518.342 359.7 517.849C346.586 515.186 333.275 515.482 320.062 515.877C306.553 516.271 292.946 517.06 279.437 516.863C276.38 516.863 273.225 516.863 270.464 516.863C274.211 518.145 278.352 519.032 282.592 519.624C296.594 521.596 310.596 521.103 324.597 520.61C338.895 520.117 353.193 519.328 367.589 520.018H367.49ZM223.824 481.464C226.585 483.239 228.755 485.211 231.417 486.591C233.586 487.676 233.586 487.676 234.079 485.31C234.474 483.436 235.263 483.042 236.939 484.028C238.714 485.014 240.489 486.197 242.263 487.183C246.208 489.451 250.349 491.324 254.983 491.62C265.731 492.212 276.479 491.423 287.029 489.55C290.283 488.958 293.537 488.268 296.495 486.69C297.679 486.098 298.763 485.408 299.256 483.633C297.974 484.324 296.988 484.817 296.101 485.408C291.762 487.775 287.128 488.662 282.296 487.873C281.31 487.676 281.015 487.479 281.31 486.493C281.803 484.619 281.212 483.042 279.733 481.76C279.043 481.168 278.155 480.971 277.563 481.76C277.07 482.45 276.38 483.239 277.761 483.831C278.352 484.126 278.352 484.619 278.155 485.211C277.563 486.493 275.493 487.775 274.112 487.577C271.45 487.282 268.689 486.887 266.027 486.493C257.646 485.211 249.461 482.943 241.08 481.563C235.558 480.675 229.938 480.182 224.022 481.563L223.824 481.464ZM410.974 519.624C411.27 518.44 411.566 517.257 411.96 516.074C416.2 502.368 420.539 488.662 424.68 474.956C428.23 463.222 431.385 451.39 432.075 439.064C432.273 435.416 431.977 431.373 431.188 429.796C431.089 430.091 430.991 430.289 430.892 430.486C429.413 437.783 427.54 444.981 425.666 452.179C421.13 469.533 416.003 486.69 412.552 504.242C411.566 509.369 410.777 514.398 410.876 519.722L410.974 519.624ZM172.551 422.203C170.381 428.908 165.747 433.74 161.014 438.571C158.943 440.741 156.873 442.91 154.999 445.375C154.21 446.361 154.309 446.854 155.492 447.347C157.661 448.235 159.732 449.418 161.901 450.404C164.859 451.686 167.916 452.573 171.072 452.77C171.663 452.77 172.353 452.968 172.452 451.883C172.649 448.235 173.832 444.882 174.72 441.332C175.804 437.191 176.988 433.148 176.692 428.81C176.495 425.95 175.311 423.682 172.452 422.203H172.551ZM433.456 303.386C427.047 339.771 420.933 376.155 418.074 413.033C425.37 376.846 433.16 340.658 433.456 303.386ZM420.342 288.891C409.199 293.427 397.663 296.188 386.619 300.23C380.013 302.597 373.702 305.358 367.884 309.302C366.997 309.894 366.208 310.485 365.025 311.471C368.772 311.373 371.73 310.584 374.787 309.795C381.59 308.02 388.197 305.358 395.099 303.879C399.635 302.893 404.269 302.104 408.706 305.555C407.622 303.189 407.129 301.216 408.706 299.343C409.495 298.357 410.58 297.765 411.665 297.075C413.735 295.892 416.003 294.906 417.877 293.328C419.158 292.244 420.144 290.962 420.342 288.891ZM455.149 215.037C457.614 212.375 458.994 209.811 459.783 206.853C461.558 200.443 461.065 193.936 460.276 187.526C458.896 176.779 458.896 166.129 460.572 155.48C461.854 147.395 462.445 139.309 460.769 131.224C460.473 129.547 460.178 127.773 459.093 125.801C456.628 155.677 457.121 185.16 455.05 215.037H455.149ZM384.746 408.201C383.661 409.089 383.069 410.075 382.478 410.962C378.041 417.865 376.266 425.556 375.477 433.543C374.59 442.516 374.984 451.587 375.181 460.56C375.181 463.913 375.181 467.265 375.181 470.618C375.378 470.618 375.576 470.618 375.773 470.618C380.309 450.207 381.492 429.204 384.746 408.201ZM356.545 458.884C358.616 454.348 368.082 399.919 367.49 396.27C367.391 396.369 367.194 396.468 367.096 396.665C366.701 397.158 366.405 397.75 366.011 398.243C360.884 406.427 358.912 415.597 357.827 425.063C356.545 436.205 356.841 447.446 356.545 458.884ZM565.782 526.427C565.782 528.104 565.782 529.78 565.782 531.358C565.782 531.949 565.782 532.541 566.67 532.442C568.937 532.146 570.91 533.034 572.98 533.921C574.656 534.71 576.431 535.006 578.305 534.907C579.981 534.907 580.178 534.118 580.08 532.738C579.882 528.892 578.305 525.54 576.629 522.187C575.84 520.61 576.234 519.624 577.516 518.638C579.882 516.764 582.545 515.384 585.207 513.905C586.785 512.919 588.461 512.031 589.841 510.651C590.729 509.763 591.32 508.777 591.025 507.495C590.827 506.411 590.532 506.016 589.447 506.904C587.574 508.383 585.601 509.862 583.629 511.242C578.305 514.989 573.079 518.835 566.571 520.413C565.782 520.61 565.881 521.103 565.881 521.596C565.881 523.272 565.881 524.948 565.881 526.526L565.782 526.427ZM373.998 390.058C373.998 390.058 374.392 389.664 374.392 389.565C374.392 389.072 374.491 388.678 374.491 388.185C374.885 382.663 373.899 377.339 372.322 372.113C368.673 359.787 362.461 348.349 359.996 335.629C359.996 335.136 359.602 334.939 359.109 334.939C357.728 334.939 356.348 334.939 355.066 335.333C353.686 335.826 353.39 336.615 354.179 337.798C356.742 341.447 358.616 345.391 360.193 349.532C363.25 357.716 365.124 366.196 367.687 374.578C369.265 379.804 371.04 384.931 373.899 389.861L373.998 390.058ZM543.005 333.361C543.498 332.77 543.399 332.277 543.498 331.784C543.892 325.769 542.61 320.05 540.835 314.429C537.088 302.696 531.271 291.652 529.003 279.524C529.003 279.129 528.806 278.833 528.411 278.833C527.031 278.833 525.552 278.833 524.171 279.326C523.087 279.721 522.594 280.411 523.481 281.594C526.439 285.736 528.411 290.271 530.088 295.004C533.144 303.583 535.018 312.457 537.779 321.134C539.159 325.276 540.737 329.417 543.005 333.46V333.361ZM515.198 398.341C522.199 417.273 531.074 435.318 539.849 453.658C540.145 452.672 539.948 452.08 539.849 451.489C538.074 444.882 536.398 438.276 534.328 431.768C531.567 422.893 528.313 414.315 522.889 406.624C520.72 403.567 518.354 400.708 515.198 398.341ZM604.632 355.843C606.998 340.066 597.039 315.12 586.587 306.048C591.025 323.205 599.505 338.686 604.632 355.843ZM382.478 379.804C381.689 375.662 380.999 371.915 380.21 368.07C378.435 359.59 376.463 351.209 372.716 343.222C370.645 338.784 367.983 334.643 364.335 331.093C364.335 331.488 364.335 331.685 364.335 331.784C367.589 339.869 369.462 348.448 371.829 356.829C373.899 364.126 376.167 371.324 380.506 377.634C380.999 378.325 381.393 379.113 382.478 379.804ZM492.717 306.837C497.943 329.713 503.465 352.49 511.846 374.38C507.507 351.307 503.366 328.135 492.717 306.837ZM585.996 366.295C585.996 366.295 586.292 366.295 586.39 366.196C586.094 364.224 585.799 362.252 585.503 360.379C584.122 353.082 581.46 346.18 578.798 339.179C577.122 334.643 575.544 330.107 574.459 325.374C574.361 324.881 573.966 324.191 574.459 323.895C574.952 323.6 575.642 323.895 576.037 324.29C577.023 324.98 577.615 325.966 578.206 327.051C578.896 328.234 579.488 329.417 580.178 330.6C580.474 331.093 580.967 331.488 581.46 330.995C581.953 330.6 582.249 330.107 581.756 329.417C580.08 327.248 579.685 324.586 578.699 322.12C578.108 320.444 577.516 318.867 575.84 317.585C575.248 320.247 573.67 322.022 571.994 323.797C571.008 324.881 570.219 326.065 569.923 327.445C569.628 328.53 569.332 329.516 570.121 330.699C572.487 334.249 574.262 338.094 575.84 342.038C578.502 348.743 580.573 355.547 583.629 362.154C584.32 363.534 585.01 364.914 585.7 366.295H585.996ZM551.386 323.205C549.315 312.556 547.54 302.301 543.991 292.539C541.92 286.919 539.258 281.594 535.314 277.059C534.919 276.566 534.623 275.777 533.736 276.073C534.032 276.96 534.426 277.65 534.623 278.439C536.891 284.848 538.469 291.553 540.342 298.16C542.413 305.654 544.484 313.049 548.625 319.655C549.315 320.839 550.104 322.022 551.386 323.304V323.205ZM236.15 583.815C251.927 583.617 267.309 582.237 282.888 585.787C281.508 583.716 279.93 582.829 278.155 582.04C272.831 579.673 267.21 578.687 261.491 578.293C255.082 577.8 248.771 577.898 242.559 579.871C240.193 580.659 237.925 581.547 236.051 583.913L236.15 583.815ZM250.447 575.631C259.026 575.631 267.407 575.631 275.69 575.631C276.775 575.631 276.775 575.236 276.676 574.349C275.789 569.32 272.535 565.77 269.281 562.122C268.886 561.629 268.591 561.826 268.393 562.319C267.013 565.573 264.153 567.052 261.097 568.432C258.927 569.419 256.758 570.306 254.687 571.391C252.913 572.278 251.434 573.461 250.447 575.631ZM568.543 343.715C575.051 360.97 580.77 378.522 584.122 396.665C585.503 392.721 585.7 388.678 585.306 384.537C584.32 374.578 581.164 365.309 576.727 356.435C574.459 351.899 571.896 347.56 568.543 343.616V343.715ZM612.323 339.376C612.323 339.376 612.224 338.982 612.126 338.784C609.759 332.572 607.886 326.262 605.815 320.05C603.252 312.161 600.491 304.47 595.856 297.47C595.462 296.878 595.265 296.089 594.18 295.793C596.251 312.161 600.984 327.051 612.224 339.376H612.323ZM415.806 364.717C414.82 374.578 412.256 384.044 409.988 393.608C408.312 400.51 406.734 407.314 406.143 414.414C405.946 417.076 405.748 419.837 406.439 422.499C412.355 403.666 417.975 384.832 415.904 364.717H415.806ZM579.981 546.049C579.981 544.669 579.981 543.289 579.981 542.007C579.981 541.316 579.685 541.021 578.995 540.823C574.262 539.936 569.529 539.147 564.599 538.95C564.007 538.95 563.613 538.95 563.416 539.64C562.232 544.275 564.697 548.712 569.233 550.191C572.389 551.177 575.642 551.275 578.896 551.177C579.685 551.177 579.981 550.881 579.882 550.092C579.882 548.712 579.882 547.331 579.882 546.049H579.981ZM423.497 403.567C426.356 403.666 428.131 402.482 429.61 400.708C431.188 398.834 432.174 396.763 432.864 394.496C435.428 386.016 435.724 377.437 434.343 368.76C434.048 367.084 433.85 365.407 432.667 363.337C430.794 377.339 430.103 390.946 423.497 403.567ZM314.145 489.55C318.287 489.057 321.935 488.761 325.583 488.859C330.908 489.057 336.134 489.352 341.459 489.55C344.318 489.648 347.276 489.55 349.939 488.366C352.108 487.479 353.686 486 354.573 483.535C347.868 484.028 341.459 483.929 334.951 484.028C330.612 484.126 326.274 484.422 321.935 485.507C319.174 486.197 316.611 487.183 314.047 489.451L314.145 489.55ZM602.759 487.676C600.491 489.944 598.42 491.817 596.152 493.395C590.137 497.635 583.334 500.692 576.826 504.044C572.093 506.509 567.36 509.172 563.317 512.721C562.824 513.116 562.232 513.412 562.134 514.2C562.528 514.2 562.824 514.2 563.218 514.2C564.402 514.003 565.683 513.806 566.867 513.412C575.347 510.749 582.841 506.312 590.137 501.283C594.18 498.522 598.026 495.663 601.082 491.916C601.97 490.831 602.759 489.648 602.759 487.676ZM346.192 343.715C351.516 360.181 354.672 377.339 361.87 393.115C360.785 375.366 356.446 358.604 346.192 343.715ZM515.1 300.526C520.424 316.894 523.58 333.953 530.778 350.321C531.369 336.319 522.889 309.203 515.1 300.526ZM561.739 553.248C561.542 556.797 561.345 560.248 561.838 563.601C562.035 564.686 562.331 565.672 562.923 566.559C563.218 566.953 563.514 567.348 564.106 567.545C566.67 567.939 569.135 568.038 571.6 567.151C574.558 565.967 575.643 563.601 575.84 560.643C576.037 558.178 573.868 557.487 572.29 556.501C571.698 556.107 571.008 555.91 570.318 555.713C567.458 554.924 564.697 554.135 561.641 553.346L561.739 553.248ZM373.899 405.638C365.222 423.978 364.335 443.304 366.011 463.025C368.871 443.896 370.645 424.668 373.899 405.638ZM532.158 461.053C532.947 449.516 519.241 415.893 511.057 408.99C518.847 426.049 525.059 443.502 532.158 461.053ZM600.293 365.999C600.293 365.999 600.293 365.407 600.293 365.112C598.814 357.322 597.138 349.631 594.772 342.137C591.813 332.868 588.067 323.994 582.15 316.204C581.756 315.711 581.559 314.922 580.573 314.922C582.052 317.683 583.235 320.444 584.418 323.304C588.264 332.671 591.123 342.433 594.279 351.997C595.856 356.829 597.533 361.562 600.293 365.999ZM385.239 476.435C386.915 459.771 387.211 443.107 388.887 426.443C381.295 442.614 382.675 459.475 385.239 476.435ZM418.37 360.28C418.665 359.59 418.764 359.393 418.863 359.097C421.722 347.856 423.793 336.418 424.582 324.881C424.779 321.134 424.877 317.486 423.891 313.838C423.596 312.753 423.3 311.57 421.919 311.077C422.61 315.218 422.412 319.064 421.919 323.008C421.032 330.896 419.06 338.587 418.074 346.476C417.482 351.011 417.088 355.449 418.37 360.379V360.28ZM504.056 119.293C504.944 121.265 505.634 122.941 506.028 124.814C507.803 131.224 508.198 137.83 508.789 144.338C509.381 150.451 509.874 156.565 511.649 162.481C512.142 164.256 512.733 166.031 514.114 167.806C514.114 167.017 514.114 166.622 514.114 166.228C513.818 155.382 512.832 144.634 510.663 133.985C509.874 130.04 508.986 125.998 507.113 122.349C506.521 121.166 505.831 119.884 503.958 119.391L504.056 119.293ZM606.604 277.847C607.491 292.934 613.703 306.64 618.634 321.134C620.211 313.049 613.309 288.299 606.604 277.847ZM475.067 194.922C475.264 194.133 475.363 193.837 475.461 193.443C476.94 182.793 477.926 172.144 477.63 161.396C477.63 157.058 477.335 152.818 475.954 148.677C475.56 147.493 475.165 146.211 473.686 145.62C473.686 146.014 473.686 146.211 473.686 146.409C474.87 151.437 474.87 156.565 474.574 161.692C474.081 169.778 472.996 177.863 473.39 186.047C473.489 189.005 473.883 191.865 475.067 194.922ZM487.984 225.883C492.125 227.461 496.365 228.348 500.704 228.743C504.845 229.039 508.789 228.743 512.733 227.165C513.818 226.771 513.818 226.376 513.128 225.587C511.649 223.813 509.874 222.629 507.705 222.038C500.506 220.263 494.097 222.334 487.984 225.883ZM530.778 375.169C530.778 375.958 530.778 376.352 530.778 376.648C530.778 377.043 530.778 377.339 530.975 377.733C532.355 384.635 535.215 390.847 538.765 396.763C540.737 400.116 542.906 403.37 545.864 405.934C546.653 406.624 547.442 407.413 548.822 407.314C546.259 403.074 544.385 398.834 542.512 394.496C540.638 390.157 538.765 385.818 536.201 381.874C534.722 379.508 533.144 377.339 530.778 375.169ZM498.732 437.684C504.253 452.968 508.493 468.744 514.015 483.929C512.339 467.364 509.479 451.193 498.732 437.684ZM549.118 528.695C549.118 527.019 549.118 525.244 549.118 523.568C549.118 522.976 549.118 522.483 548.329 522.483C544.78 522.483 541.328 523.173 538.765 525.836C537.779 526.822 536.201 528.005 538.469 529.484C539.159 529.878 539.159 530.963 539.258 531.752C539.258 532.344 539.258 532.935 539.455 533.527C539.948 536.879 541.328 537.668 544.484 536.09C545.766 535.499 546.949 534.71 548.428 534.71C549.217 534.71 549.217 534.217 549.217 533.625C549.217 531.949 549.217 530.371 549.217 528.695H549.118ZM475.067 349.729C475.067 346.673 474.574 345.884 472.01 344.898C469.939 344.109 467.77 344.01 465.601 344.306C464.516 344.504 464.122 344.799 464.22 345.983C464.615 348.842 464.417 351.702 463.333 354.462C463.037 355.153 463.136 355.547 463.629 355.942C465.699 357.815 469.15 358.209 471.517 356.632C474.179 354.857 474.87 352.195 475.067 349.729ZM434.146 606.691C431.878 606.888 429.808 607.085 427.836 607.184C423.497 607.381 419.257 607.282 414.918 607.48C410.876 607.677 407.227 609.156 404.171 612.213C404.466 612.213 404.664 612.41 404.762 612.41C410.087 612.41 415.51 612.607 420.835 612.607C423.793 612.607 426.849 612.311 429.61 611.128C431.582 610.24 433.259 609.057 434.146 606.691ZM472.996 375.071C472.799 371.817 472.7 368.563 471.32 365.605C470.038 362.745 467.277 361.759 464.418 362.844C463.826 363.041 463.629 363.337 463.629 364.027C463.727 367.084 463.826 370.14 464.516 373.197C464.911 374.873 465.404 376.55 466.784 377.733C468.066 378.916 470.728 379.409 472.404 378.522C473.883 377.733 472.7 376.254 473.095 375.169L472.996 375.071ZM472.503 405.934C472.503 405.934 472.503 405.934 472.404 405.934C472.404 403.764 472.404 401.595 472.404 399.426C472.404 398.243 471.911 397.75 470.827 397.552C468.362 397.158 466.192 398.144 465.108 400.412C463.333 404.455 463.727 408.399 466.192 411.948C467.376 413.625 469.052 414.315 471.123 414.019C472.109 413.921 472.404 413.526 472.404 412.54C472.404 410.272 472.404 408.103 472.404 405.835L472.503 405.934ZM346.586 118.011C346.586 119.983 346.586 122.054 346.586 124.026C346.586 124.617 346.586 125.11 347.375 125.012C351.023 124.42 354.77 124.223 358.32 122.941C359.01 122.744 359.7 122.448 360.095 121.856C360.686 121.068 360.292 120.377 359.7 119.786C359.405 119.49 359.207 119.391 358.813 119.786C356.742 121.659 352.009 122.152 349.544 120.772C348.854 120.377 348.46 119.884 348.46 119.095C348.46 118.208 348.854 117.518 349.643 117.123C350.432 116.729 351.22 116.63 352.009 116.729C354.179 116.926 356.348 117.123 358.517 117.321C359.207 117.321 360.193 117.518 360.588 116.729C360.982 115.94 360.588 115.151 360.095 114.362C359.7 113.672 359.01 113.278 358.221 113.081C357.038 112.686 355.756 112.588 354.573 112.489C352.009 112.292 349.446 112.686 347.079 111.503C346.192 111.109 346.389 111.799 346.389 112.193C346.389 114.165 346.389 116.039 346.389 118.011H346.586ZM469.348 604.423C466.587 603.535 463.924 603.634 461.262 604.127C453.67 605.606 447.063 609.55 439.865 611.917C443.218 611.621 446.472 611.72 449.726 611.522C454.261 611.226 458.797 611.227 463.136 609.649C465.798 608.663 468.066 607.184 469.348 604.423ZM479.8 518.44C481.18 518.44 482.462 518.44 483.842 518.145C485.42 517.947 486.899 517.356 487.589 515.581C487.787 515.186 488.082 514.496 487.589 514.299C485.42 513.116 485.716 511.045 485.716 509.172C485.716 508.284 485.42 507.988 484.631 507.988C481.969 507.988 479.307 507.988 476.644 507.988C476.053 507.988 475.56 507.988 475.461 508.777C475.165 510.256 474.672 511.637 474.574 513.116C474.475 514.792 474.771 516.567 475.658 517.849C476.349 518.835 478.123 518.046 479.307 518.342C479.405 518.342 479.504 518.342 479.701 518.342L479.8 518.44ZM614.887 411.061C614.69 412.343 614.591 413.625 614.394 414.907C613.112 422.893 611.731 430.979 610.548 438.966C609.957 443.304 609.858 447.643 610.844 452.475C613.211 443.009 615.577 434.134 616.267 424.865C616.662 420.231 616.662 415.597 614.887 411.16V411.061ZM465.206 333.756C465.009 335.333 465.601 337.01 467.967 337.601C468.362 337.7 468.756 338.094 469.249 338.291C470.531 338.883 471.813 339.08 473.193 338.686C473.785 338.587 473.982 338.291 473.883 337.7C472.996 334.446 473.489 331.192 474.278 327.938C474.574 326.459 474.475 324.98 473.588 323.698C473.095 322.909 472.602 322.613 471.517 322.909C467.277 324.093 464.911 327.741 465.206 333.756ZM559.669 569.714C560.753 573.165 559.373 575.335 557.105 577.11C556.119 577.898 555.626 579.082 555.429 580.364C555.33 581.35 555.626 581.941 556.711 581.941C558.978 581.941 561.148 582.04 563.416 581.547C567.754 580.561 570.121 577.405 569.923 572.968C569.923 572.081 569.726 571.686 568.74 571.785C565.684 571.982 562.725 571.785 559.669 569.714ZM512.536 502.072C510.86 502.072 509.282 502.072 507.606 502.072C506.817 502.072 506.423 502.269 506.423 503.157C506.423 505.819 506.423 508.58 506.423 511.242C506.423 511.834 506.521 512.327 507.31 512.228C509.775 511.933 512.24 511.834 514.607 511.045C518.847 509.665 519.438 506.608 518.847 503.157C518.748 502.368 518.255 502.171 517.466 502.171C515.79 502.171 514.212 502.171 512.536 502.171V502.072ZM541.23 463.222C540.54 467.758 537.286 470.223 534.13 472.787C532.454 474.167 530.876 475.548 529.89 477.421C529.595 477.914 529.2 478.506 529.397 479.295C532.947 477.816 536.398 477.618 539.849 478.999C541.23 479.492 541.723 478.999 542.216 477.816C543.596 474.167 544.089 470.519 543.498 466.673C543.3 465.392 542.906 464.011 541.328 463.124L541.23 463.222ZM495.28 348.349C496.76 352.885 497.45 357.618 498.041 362.351C498.83 368.07 499.323 373.986 501.197 379.508C501.887 381.381 502.577 383.156 504.253 385.03C503.76 371.817 502.972 359.294 495.28 348.349ZM455.247 469.73C455.05 474.759 454.163 479.196 452.684 483.535C451.5 487.183 450.219 490.733 449.233 494.48C448.937 495.762 449.233 496.057 450.514 496.057C453.571 496.057 455.74 494.283 456.825 490.634C457.91 487.084 457.811 483.436 457.515 479.788C457.219 476.534 456.726 473.28 455.149 469.73H455.247ZM362.067 205.472C362.067 208.332 362.067 210.797 362.067 213.262C362.067 219.277 361.475 225.292 362.363 231.306C362.658 232.983 362.954 234.659 364.138 236.039C364.631 236.631 365.124 237.223 365.912 237.025C366.603 236.828 366.208 236.039 366.208 235.448C366.208 234.955 366.208 234.462 366.208 234.067C366.208 226.771 366.603 219.573 365.222 212.375C364.729 210.008 364.138 207.642 362.067 205.571V205.472ZM356.151 206.36C356.446 212.177 355.855 217.896 355.559 223.714C355.46 227.264 355.165 230.813 355.953 234.265C356.249 235.448 356.644 236.631 357.926 237.223C359.306 237.814 359.996 237.42 359.996 235.941C359.996 229.433 359.996 222.827 359.109 216.319C358.616 212.868 357.926 209.416 356.052 206.36H356.151ZM368.279 205.571C368.772 212.177 368.082 218.488 367.884 224.799C367.786 228.053 367.687 231.306 368.476 234.462C368.772 235.744 369.364 237.025 370.843 237.321C371.829 237.518 372.617 237.518 372.223 236.039C371.434 232.588 371.434 229.039 371.631 225.489C371.829 221.643 372.322 217.798 372.124 213.952C371.927 210.797 371.04 208.036 368.378 205.571H368.279ZM510.564 342.729C513.128 351.209 516.579 359.491 514.41 368.661C518.452 367.478 520.424 364.421 520.03 360.28C519.438 353.871 516.677 348.448 512.339 343.813C511.944 343.32 511.55 342.827 510.564 342.729ZM442.823 173.623C442.725 172.834 442.626 172.046 442.429 171.158C441.147 163.763 439.569 156.466 436.414 149.663C435.231 147 433.752 144.535 431.287 142.76C429.709 141.577 428.427 141.281 426.652 141.676C430.005 144.239 432.174 147.691 433.752 151.536C435.329 155.382 436.513 159.424 437.795 163.369C438.978 167.017 440.26 170.567 442.823 173.623ZM477.926 479.393C477.926 479.393 478.616 479.196 478.814 479.098C479.405 478.802 479.8 478.407 479.602 477.717C479.405 477.027 478.715 477.224 478.222 477.323C477.335 477.323 476.644 477.816 476.053 478.407C473.39 480.872 472.404 487.183 474.278 490.24C474.771 491.029 475.264 491.817 476.053 490.437C476.447 489.747 477.236 489.55 478.025 489.451C479.405 489.254 480.687 489.057 482.068 488.761C483.152 488.564 483.842 487.873 483.744 486.69C483.744 483.14 482.561 481.563 479.307 480.379C478.912 480.182 478.419 480.084 477.926 479.492V479.393ZM307.243 465.194C309.511 465.194 309.412 465.194 309.61 462.729C309.708 460.954 310.004 459.18 310.99 457.701C311.385 457.109 311.483 456.714 310.793 456.221C308.328 454.545 305.764 454.249 303.102 455.433C300.538 456.616 299.355 458.785 299.256 461.645C299.256 462.532 299.651 463.124 300.44 463.617C302.412 464.701 304.581 465.194 307.145 465.194H307.243ZM380.21 324.684C380.802 327.741 381.295 330.403 381.886 332.967C383.069 337.996 384.253 342.926 387.802 346.969C388.493 347.757 389.183 348.645 390.366 349.039C390.563 347.856 390.169 346.771 389.972 345.785C389.183 340.855 388.295 336.024 386.126 331.488C384.844 328.924 383.267 326.558 380.309 324.684H380.21ZM311.878 446.854C311.878 444.586 311.878 442.318 310.694 440.346C309.61 438.473 307.145 437.585 304.581 438.177C302.51 438.67 303.891 440.445 303.398 441.53C303.398 441.727 303.398 441.924 303.398 442.023C303.398 444.29 303.398 446.558 304.581 448.53C305.764 450.502 308.328 451.489 310.793 450.7C312.666 450.108 311.483 448.235 311.878 447.051C311.878 447.051 311.878 446.953 311.878 446.854ZM514.804 324.388C517.664 335.629 518.452 347.56 524.566 357.815C524.369 345.785 520.917 334.643 514.804 324.388ZM483.645 313.345C486.702 316.894 487.787 320.937 488.773 324.98C489.956 329.812 490.547 334.742 492.618 339.278C493.407 340.954 494.294 342.531 495.971 344.01C495.971 342.926 495.971 342.236 495.773 341.545C495.083 336.319 493.999 331.093 492.421 326.065C491.435 322.909 490.252 319.754 488.378 316.894C487.294 315.317 486.11 313.739 483.547 313.246L483.645 313.345ZM443.021 303.189C442.33 303.287 441.837 303.682 441.443 304.273C440.654 305.358 440.161 306.541 439.865 307.823C437.696 315.711 437.104 323.698 437.499 331.784C437.499 332.967 437.696 334.249 438.189 335.432C438.386 335.925 438.682 336.319 439.274 336.122C439.767 336.024 439.865 335.629 439.865 335.136C439.865 334.446 439.865 333.854 439.865 333.164C440.26 326.853 440.062 320.543 441.147 314.331C441.739 311.077 442.527 307.922 443.514 304.766C443.711 304.175 444.204 303.386 442.922 303.189H443.021ZM548.724 390.058C548.231 388.382 547.738 386.607 547.245 384.931C545.963 380.79 544.977 376.648 542.709 372.901C541.033 370.042 538.666 367.873 535.116 366.788C538.469 375.465 542.216 383.551 548.724 390.058ZM307.933 422.302C310.99 422.4 313.061 420.626 313.554 417.372C314.244 413.329 311.286 409.385 307.539 409.385C306.356 409.385 305.468 409.582 305.567 411.258C305.764 414.118 305.567 416.977 305.567 419.935C305.567 421.513 306.356 422.302 307.933 422.302ZM559.373 292.244C558.978 289.976 558.584 287.708 558.19 285.44C557.302 281.2 556.316 276.96 553.95 273.213C552.865 271.438 551.485 269.86 549.414 268.48C550.597 274.298 551.485 279.721 553.555 284.75C554.738 287.708 556.316 290.37 559.373 292.145V292.244ZM305.567 472.787C305.567 472.787 305.961 471.406 305.173 471.111C303.102 470.322 301.327 468.744 298.96 468.843C297.876 468.843 297.284 469.04 297.58 470.322C297.974 471.998 297.58 473.576 297.087 475.153C296.791 476.041 296.397 476.928 296.101 477.816C295.608 480.084 296.988 481.464 299.158 480.971C303.299 479.985 305.468 477.323 305.468 472.688L305.567 472.787ZM473.686 505.721C476.151 505.129 478.222 504.735 480.293 504.242C481.969 503.847 483.645 503.157 484.828 501.678C485.519 500.79 486.209 500.002 484.631 499.213C483.842 498.818 483.645 497.832 483.645 497.043C483.645 495.86 483.152 495.663 482.166 495.762C480.786 495.762 479.307 495.762 477.926 495.762C475.363 495.762 474.475 496.452 474.475 498.917C474.475 501.185 474.475 503.354 473.686 505.721ZM549.513 474.562C555.429 471.604 556.513 453.066 551.189 449.122C550.794 450.897 550.499 452.573 550.301 454.348C549.611 461.053 551.287 467.758 549.513 474.562ZM535.412 606.198C542.216 607.578 547.442 605.113 550.696 599.197C551.189 598.309 551.09 597.915 550.203 597.422C547.639 595.844 544.977 596.14 542.216 598.901C539.849 601.169 537.779 603.733 535.412 606.296V606.198ZM549.118 552.853C548.724 549.402 549.611 546.148 549.513 542.993C549.513 541.711 549.513 540.528 548.526 539.542C548.132 539.147 547.639 538.457 547.146 539.344C546.357 540.823 544.977 540.922 543.498 541.119C542.413 541.316 541.23 541.316 540.244 541.908C538.863 542.598 538.469 544.472 539.554 544.965C541.92 545.951 543.3 547.923 544.878 549.796C545.963 551.078 547.047 552.262 549.019 552.853H549.118ZM559.57 359.393C559.274 360.97 559.077 362.449 558.781 364.027C557.598 370.831 555.922 377.634 556.119 384.635C556.119 386.706 556.415 388.678 557.499 390.847C558.683 383.156 560.458 375.859 561.049 368.366C561.246 365.309 561.148 362.252 559.669 359.393H559.57ZM549.907 291.356C549.907 291.356 549.611 291.356 549.414 291.455C549.414 292.441 549.414 293.427 549.414 294.413C549.71 297.568 550.992 300.428 552.273 303.287C553.851 307.034 555.725 310.682 553.851 315.218C556.711 313.739 557.598 311.471 557.499 309.006C557.204 302.203 554.147 296.483 550.006 291.356H549.907ZM527.622 388.579C532.257 397.454 534.821 407.314 540.934 415.4C540.342 405.736 533.933 392.918 527.622 388.579ZM619.324 260.789C619.127 268.283 622.282 280.214 626.916 281.989C626.522 273.213 624.057 263.648 619.324 260.789ZM553.752 420.724C552.964 429.204 549.71 437.585 553.457 446.164C556.119 437.684 556.809 429.303 553.752 420.724ZM629.184 432.359C626.128 432.359 623.169 432.359 620.113 432.359C618.831 432.359 618.732 432.951 619.127 433.838C619.817 435.317 621.197 435.909 622.578 436.304C626.029 437.29 629.579 437.191 633.03 436.402C635.101 435.909 637.073 435.416 638.552 433.838C638.847 433.543 639.242 433.05 639.045 432.557C638.847 432.064 638.354 432.359 637.96 432.359C635.002 432.359 632.044 432.359 629.086 432.359H629.184ZM586.39 243.632C586.883 243.336 588.067 244.421 588.264 242.843C588.658 240.082 586.785 238.209 584.122 238.603C580.671 239.096 578.108 240.97 576.431 243.928C575.544 245.505 575.544 247.083 576.629 248.562C577.713 250.041 578.206 250.041 579.389 248.759C580.178 247.872 580.868 246.787 581.657 245.801C582.841 244.224 584.418 243.435 586.489 243.533L586.39 243.632ZM551.189 374.775C551.189 367.577 548.625 361.759 543.399 356.928C542.413 365.21 545.568 372.507 551.189 374.775ZM341.557 479.295C345.699 478.605 349.544 477.323 352.601 474.266C353.094 473.773 353.39 473.28 353.587 472.59C353.784 471.505 353.39 470.716 352.502 470.223C351.911 469.829 351.122 468.941 350.432 469.632C348.361 471.505 345.699 471.998 343.431 473.28C341.459 474.365 340.374 475.942 340.374 478.21C340.374 479.196 340.768 479.492 341.656 479.393L341.557 479.295ZM347.178 254.577C347.079 252.112 346.98 249.647 346.29 247.182C345.994 246.294 345.699 245.407 345.008 244.717C344.318 244.026 343.727 244.322 343.135 244.914C342.642 245.407 342.346 245.801 343.135 246.393C344.515 247.675 344.515 249.351 344.121 251.027C343.825 252.309 343.332 253.591 342.938 254.873C342.248 257.436 341.36 260 342.05 262.662C342.248 263.353 342.05 264.141 343.036 264.339C343.825 264.536 344.515 264.141 345.107 263.55C345.797 262.86 346.093 261.972 346.389 261.085C347.079 259.014 347.079 256.845 347.276 254.577H347.178ZM598.519 422.302C598.124 424.274 597.828 425.852 597.532 427.528C596.744 431.965 595.659 436.304 596.053 440.839C596.251 442.811 596.645 444.685 598.321 446.263C598.519 445.178 598.617 444.389 598.716 443.502C599.505 439.262 600.589 435.022 600.786 430.585C600.786 427.725 600.688 424.964 598.519 422.302ZM392.535 330.896C392.535 328.431 392.535 326.262 392.535 324.093C392.535 322.022 392.535 319.951 391.747 317.979C390.958 316.007 389.676 314.725 387.507 314.429C386.816 314.429 386.225 314.429 386.323 315.415C386.422 318.867 386.619 322.219 387.802 325.473C388.591 327.741 389.873 329.713 392.535 330.896ZM298.862 369.056C292.354 369.056 281.508 374.479 279.536 378.719C289.79 377.24 296.791 373.789 298.862 369.056ZM608.576 307.33C607.689 305.654 607.097 303.977 606.801 302.203C606.407 299.639 606.012 296.977 605.618 294.314C605.224 292.244 604.731 290.271 603.35 288.694C602.561 287.806 601.575 286.623 600.491 287.018C599.505 287.412 599.8 288.891 599.998 289.976C600.885 295.99 603.252 301.512 606.9 306.344C607.294 306.837 607.689 307.429 608.675 307.33H608.576ZM561.345 269.072C561.345 266.607 561.542 264.141 560.655 261.775C559.965 259.803 558.584 258.62 556.612 258.324C555.922 258.225 555.33 258.324 555.429 259.211C555.626 262.367 555.725 265.522 556.711 268.579C557.401 270.551 558.288 272.326 560.063 273.607C560.359 273.805 560.655 274.298 561.148 274.002C561.542 273.805 561.345 273.41 561.345 273.016C561.345 271.635 561.345 270.354 561.345 268.973V269.072ZM293.734 472.59C293.734 470.913 293.636 469.237 292.551 467.758C291.96 466.871 291.072 466.673 290.086 466.871C289.1 466.969 289.199 467.857 289.002 468.547C288.607 469.632 288.311 470.716 288.015 471.702C287.522 473.181 286.931 474.66 286.832 476.337C286.832 477.914 287.424 478.9 289.002 479.295C291.072 479.788 292.058 479.295 292.847 477.717C293.537 476.139 293.734 474.463 293.833 472.688L293.734 472.59ZM596.546 181.216C592.701 180.131 589.25 179.145 585.601 178.258C583.925 177.863 582.249 177.567 580.573 177.765C579.291 177.962 578.206 178.455 577.516 179.54C577.122 180.23 577.22 180.526 578.009 180.821C582.15 181.906 586.292 183.188 590.63 183.385C592.701 183.385 594.87 183.188 596.645 181.314L596.546 181.216ZM594.87 187.132C590.926 186.738 587.574 185.061 584.024 183.977C582.249 183.385 580.375 182.892 578.502 182.991C577.22 182.991 576.333 183.779 575.84 184.963C575.445 185.949 575.642 186.54 576.924 186.442C579.389 186.245 581.657 186.935 583.925 187.822C585.207 188.315 586.587 188.907 587.869 189.301C590.827 190.189 593.194 189.4 594.87 187.132ZM597.532 175.398C593.49 174.708 589.841 172.834 585.996 171.75C584.615 171.355 583.235 170.961 581.855 171.06C580.474 171.06 579.389 171.75 578.896 173.13C578.502 174.116 578.699 174.609 579.784 174.905C582.643 175.595 585.503 176.384 588.461 176.581C591.616 176.877 594.673 176.877 597.631 175.3L597.532 175.398ZM448.838 512.426C446.57 512.426 445.979 513.116 446.077 514.989C446.077 516.074 446.669 516.961 447.556 517.454C450.021 519.131 452.684 519.328 455.445 518.046C457.219 517.257 457.712 515.482 456.924 513.313C456.431 511.735 455.05 511.735 453.67 511.834C451.895 511.933 450.12 512.228 448.838 512.327V512.426ZM504.451 294.117C505.732 303.09 507.606 311.866 514.015 318.867C512.635 309.894 508.789 301.907 504.451 294.117ZM444.302 157.156C444.598 155.776 444.204 154.79 444.007 153.804C443.316 149.663 442.922 145.521 440.95 141.676C439.964 139.901 438.781 138.422 436.611 137.436C437.4 144.732 439.372 151.437 444.302 157.156ZM625.832 438.078C624.353 438.078 623.367 438.078 622.282 438.374C618.831 439.163 616.76 441.825 616.859 445.375C616.859 445.967 616.859 446.558 617.746 446.361C621.395 445.671 624.649 444.29 627.015 441.431C627.705 440.543 628.987 439.459 628.593 438.67C628.1 437.684 626.522 438.177 625.733 438.078H625.832ZM393.127 610.733C386.718 607.973 374.097 608.761 370.251 612.213C371.336 612.213 372.322 612.213 373.406 612.213C377.843 612.213 382.182 612.903 386.619 612.706C388.887 612.607 391.155 612.41 393.127 610.733ZM577.91 290.764C581.263 286.919 578.995 276.467 573.868 273.114C574.065 279.326 574.262 285.44 577.91 290.764ZM328.344 542.796C330.218 543.091 331.894 543.387 333.472 543.584C337.515 544.176 341.656 544.866 345.699 543.584C347.276 543.091 348.854 542.5 350.136 541.021C348.065 541.021 346.29 541.021 344.417 541.021C341.163 540.823 337.81 540.429 334.556 540.528C332.387 540.528 330.218 540.823 328.246 542.697L328.344 542.796ZM501.591 303.287C500.112 303.583 499.718 304.766 499.816 306.147C500.013 312.457 502.281 318.078 505.93 323.107C506.423 323.797 507.212 324.684 508.099 323.994C508.888 323.402 508.099 322.613 507.705 321.923C505.141 316.106 502.183 310.485 502.281 303.879C502.281 303.484 502.281 303.189 501.591 303.189V303.287ZM498.239 393.707C498.239 392.326 498.14 391.34 498.041 390.354C497.746 387.988 497.154 385.72 495.28 384.044C494.59 383.452 494.097 383.156 493.703 384.438C493.111 386.804 492.52 389.171 492.717 391.537C492.914 394.003 493.9 396.073 496.365 397.059C497.647 397.552 498.239 397.454 498.041 395.975C498.041 395.087 498.041 394.2 498.041 393.707H498.239ZM619.225 291.455C618.732 296.089 620.606 305.456 623.071 307.034C626.029 301.907 624.944 293.23 619.225 291.455ZM465.404 381.578C465.601 384.044 465.699 386.311 465.897 388.481C465.897 389.368 466.094 390.256 466.192 391.143C466.192 391.932 466.587 392.03 467.277 391.932C468.756 391.833 470.235 391.636 471.714 391.537C472.404 391.537 472.602 391.143 472.7 390.551C473.292 386.706 471.911 384.241 468.263 382.663C467.474 382.367 466.685 381.973 465.502 381.578H465.404ZM360.785 133.294C357.827 133.294 355.263 133.294 352.601 133.294C351.023 133.294 349.544 133.294 348.065 133.689C346.586 134.083 345.304 134.773 344.811 136.351C344.614 137.041 344.614 137.436 345.501 137.534C349.15 137.534 352.897 137.83 356.545 136.844C358.221 136.351 359.799 135.562 360.785 133.393V133.294ZM360.489 127.477C357.137 127.773 354.277 127.28 351.516 126.984C349.939 126.787 348.361 126.688 346.783 127.181C345.501 127.575 344.713 128.364 344.515 129.745C344.417 130.731 344.515 131.224 345.797 131.322C348.065 131.322 350.234 131.322 352.502 131.026C355.263 130.632 358.024 129.843 360.588 127.477H360.489ZM360.489 139.704C358.616 139.999 357.038 139.901 355.362 139.704C352.798 139.408 350.333 139.013 347.769 139.309C346.192 139.506 344.91 139.999 344.515 141.774C344.22 143.352 344.417 143.549 345.896 143.056C347.276 142.662 348.657 142.563 350.136 142.76C351.812 142.958 353.488 143.253 355.263 143.352C357.827 143.549 359.405 142.465 360.489 139.802V139.704ZM488.871 434.43C487.491 434.43 486.406 435.515 486.308 437.092C486.012 439.853 488.181 444.192 490.646 445.474C491.534 445.967 492.421 446.164 493.308 445.474C493.604 445.276 494.097 444.882 493.407 444.488C491.731 443.502 491.731 441.727 491.632 440.149C491.632 438.966 491.632 437.684 491.238 436.501C490.942 435.219 490.153 434.43 488.871 434.331V434.43ZM244.433 479.393C249.461 478.9 253.701 480.774 258.04 481.957C259.322 482.253 260.604 482.549 261.787 482.746C264.153 483.042 265.534 482.056 266.224 479.788C262.28 480.675 258.533 479.788 254.786 478.605C253.11 478.112 251.434 477.618 249.659 477.421C247.785 477.323 246.109 477.717 244.433 479.393ZM334.063 538.851C338.599 538.851 342.543 538.851 346.586 538.851C347.276 538.851 348.164 539.246 348.46 538.556C348.854 537.668 348.46 536.682 347.868 535.893C347.276 535.203 346.487 534.809 345.6 534.611C344.318 534.316 343.036 534.414 341.755 534.611C338.994 535.203 336.331 536.09 334.162 538.851H334.063ZM514.311 429.796C513.522 422.598 509.972 416.879 504.253 411.85C505.732 419.344 510.367 424.372 514.311 429.796ZM309.61 288.792C309.314 285.44 310.3 282.876 311.483 280.312C312.371 278.439 313.258 276.566 313.751 274.593C314.244 272.227 313.652 270.354 311.878 269.17C311.68 271.537 310.892 273.805 310.103 275.974C309.314 278.045 308.426 280.115 308.032 282.383C307.638 284.552 307.638 286.722 309.61 288.891V288.792ZM555.429 585.984C554.936 585.984 554.344 585.984 553.851 585.984C551.189 585.984 550.301 587.266 551.09 589.83C551.583 591.506 553.259 592.492 555.133 592.196C557.795 591.802 559.767 589.928 559.767 587.66C559.767 586.477 559.471 585.787 558.091 585.984C557.204 586.083 556.316 585.984 555.429 585.984ZM471.616 201.331C471.911 203.796 471.221 205.965 470.235 208.036C469.348 209.909 468.953 211.783 469.249 213.854C469.446 215.333 470.432 215.924 471.813 215.234C472.7 214.84 473.193 214.051 473.39 213.163C474.475 209.416 474.179 205.768 472.602 202.12C472.404 201.824 472.306 201.331 471.517 201.232L471.616 201.331ZM299.059 440.346C299.256 437.783 298.27 436.304 296.495 436.402C296.002 436.402 295.411 436.402 295.608 437.29C296.101 439.459 295.312 441.332 294.228 443.107C293.439 444.389 293.044 445.671 293.241 447.15C293.34 448.925 293.932 449.221 295.411 448.235C296.002 447.84 296.495 447.347 296.89 446.756C298.172 444.783 299.059 442.713 299.158 440.346H299.059ZM533.835 526.625C532.848 526.625 531.961 527.019 531.172 527.413C530.285 527.906 529.299 528.498 528.214 528.597C527.721 528.597 526.834 528.597 526.834 529.287C526.834 530.371 526.242 532.048 527.031 532.442C528.609 533.132 529.792 534.513 531.567 534.809C532.355 534.907 532.848 534.809 532.848 533.823C532.848 532.541 533.44 531.357 534.032 530.174C534.426 529.385 534.821 528.597 534.919 527.709C534.919 526.92 534.722 526.427 533.835 526.625ZM475.461 452.869C476.743 452.869 477.729 452.869 478.715 452.869C479.109 452.869 479.504 452.869 479.701 452.376C480.49 450.404 479.307 446.46 477.532 445.375C476.447 444.783 475.658 444.586 475.067 446.065C474.672 447.051 474.081 447.939 473.588 448.826C472.996 450.009 471.517 451.39 472.109 452.475C472.503 453.362 474.475 452.573 475.56 452.77L475.461 452.869ZM490.35 121.758C491.829 127.871 494.59 133.294 497.844 138.619C498.041 131.815 496.069 125.998 490.35 121.758ZM318.484 230.715C318.484 229.039 318.188 227.461 317.104 226.08C316.413 225.292 315.526 225.094 314.54 225.39C313.554 225.686 313.85 226.573 313.85 227.165C313.85 229.433 313.85 231.799 313.85 234.067C313.85 234.758 313.357 235.645 314.441 236.039C315.526 236.335 316.413 236.039 317.104 235.251C318.188 233.969 318.385 232.391 318.385 230.715H318.484ZM582.446 260.789C582.052 262.169 582.446 263.353 582.742 264.536C583.334 267.987 583.925 271.438 585.897 274.396C587.179 276.467 588.461 276.566 590.039 274.791C587.968 273.607 587.179 271.537 586.686 269.466C586.094 267.494 585.897 265.423 585.01 263.55C584.517 262.465 583.827 261.381 582.545 260.789H582.446ZM371.237 251.816C371.04 249.844 370.843 247.773 368.673 246.59C368.18 246.294 367.293 245.801 367.293 246.984C367.293 249.647 366.8 252.21 366.8 254.873C366.8 255.76 366.8 256.648 367.391 257.436C368.18 258.521 369.166 258.521 369.857 257.436C370.843 255.76 371.237 253.985 371.237 251.816ZM295.805 457.405C295.805 455.038 294.918 453.559 293.34 453.066C291.861 452.573 291.368 452.869 291.467 454.447C291.565 457.01 291.368 459.475 290.185 461.842C289.988 462.236 289.297 462.729 289.692 463.222C290.086 463.814 290.875 463.617 291.467 463.518C292.551 463.42 293.34 462.828 293.932 462.039C295.115 460.659 295.608 458.982 295.707 457.405H295.805ZM311.779 432.557C311.779 432.557 311.779 432.162 311.779 432.064C311.779 429.697 310.596 428.514 308.229 428.514C305.567 428.514 304.68 429.697 305.567 432.261C305.961 433.444 306.849 434.233 307.835 434.824C310.464 436.205 311.779 435.449 311.779 432.557ZM403.776 600.084C404.565 596.929 402.692 594.464 399.733 594.661C398.353 594.76 396.973 595.154 395.789 596.042C395 596.732 393.719 597.323 394.113 598.408C394.606 599.591 396.085 600.084 397.466 599.887C397.959 599.887 398.452 599.69 399.043 599.493C400.72 598.901 402.297 598.605 403.875 599.986L403.776 600.084ZM522.889 457.306C523.087 459.18 523.383 461.053 523.481 462.828C523.678 464.307 523.876 465.786 524.664 467.068C525.355 468.35 526.341 469.139 527.82 469.237C528.51 469.237 528.707 469.237 528.51 468.448C527.82 465.885 527.524 463.124 526.538 460.659C525.848 459.081 524.862 457.701 522.889 457.306ZM504.549 475.942C503.662 481.661 504.845 491.817 508.296 493.296C507.606 487.479 507.606 481.661 504.549 475.942ZM299.158 422.006C298.862 418.851 298.96 417.963 300.242 414.709C300.735 413.427 301.426 412.146 301.524 410.667C301.721 408.99 300.538 407.906 298.369 407.906C296.594 407.906 298.073 409.286 297.679 409.976C297.481 410.469 297.58 411.16 297.58 411.751C297.58 414.019 296.988 416.287 297.186 418.653C297.284 420.034 297.58 421.316 299.158 421.907V422.006ZM606.505 438.276C605.815 435.613 606.111 433.345 606.9 431.078C607.393 429.697 607.985 428.317 608.379 426.936C608.773 425.654 608.872 424.274 607.787 423.091C606.998 422.203 606.407 422.203 605.914 423.386C604.336 427.331 603.745 431.472 604.632 435.613C604.829 436.599 605.224 437.487 606.407 438.177L606.505 438.276ZM555.429 413.822C555.429 410.568 556.513 407.807 557.204 405.046C557.598 403.37 558.091 401.694 557.894 400.017C557.795 398.144 557.105 397.059 555.725 396.369C556.513 399.13 555.725 401.694 554.936 404.159C554.443 405.736 553.851 407.413 553.457 408.99C552.964 410.864 553.654 412.441 555.429 413.822ZM461.262 101.544C461.459 98.2901 461.558 95.6278 461.262 92.9655C461.262 92.3739 461.164 91.585 460.375 91.585C459.685 91.585 459.389 92.3738 459.389 93.0641C459.389 94.1487 459.389 95.2334 459.389 96.2194C459.389 100.164 458.797 104.108 459.389 108.052C459.389 108.742 459.389 109.728 460.375 109.629C461.164 109.629 461.262 108.742 461.262 107.953C461.262 105.685 461.262 103.319 461.262 101.544ZM515.001 299.737C515.001 299.737 515.001 299.737 514.903 299.737C514.903 299.737 514.903 299.737 514.903 299.836C514.903 299.836 514.903 299.836 515.001 299.836C515.001 299.836 515.001 299.836 515.001 299.737Z" fill="#C5CFEC"/>
<path d="M336.528 637.258C336.725 635.878 337.909 635.582 338.895 635.089C340.867 634.004 342.937 633.018 345.008 631.835C345.6 631.539 346.29 631.243 346.191 630.455C346.093 629.666 345.205 629.666 344.614 629.469C343.332 629.173 342.05 629.074 340.669 628.877C340.867 627.595 341.951 627.201 342.937 626.905C345.107 626.215 347.276 626.51 349.445 626.609C352.107 626.806 354.77 627.102 357.629 627.003C352.699 630.948 348.755 635.976 342.247 637.16H336.627L336.528 637.258Z" fill="#C5CFEC"/>
<path d="M384.647 371.521C384.647 371.521 384.647 371.621 384.647 371.721C384.647 371.721 384.647 371.721 384.748 371.721L384.647 371.521Z" fill="#C5CFEC"/>
<path d="M639.734 456.517L640.035 456.717C640.035 456.717 639.834 456.617 639.834 456.517H639.734Z" fill="#C5CFEC"/>
<path d="M586.39 252.703C586.39 252.703 586.193 252.408 586.39 252.309C586.39 252.309 586.489 252.506 586.587 252.605C586.587 252.605 586.587 252.703 586.489 252.802L586.39 252.703Z" fill="#C5CFEC"/>
<path d="M345.893 343.025V343.121H345.796L345.893 343.025Z" fill="#C5CFEC"/>
<path d="M378.434 194.33C378.434 194.33 378.336 193.936 378.434 193.936C378.632 193.739 378.73 193.936 378.829 194.133C378.829 194.133 378.632 194.33 378.533 194.429L378.434 194.33Z" fill="#C5CFEC"/>
<path d="M469.939 119.884C469.939 119.884 469.741 119.687 469.939 119.49C469.939 119.49 470.037 119.687 470.136 119.687C470.136 119.687 470.136 119.687 470.037 119.785L469.939 119.884Z" fill="#C5CFEC"/>
<path d="M514.905 299.737V299.838L514.805 299.938L514.705 299.838L514.905 299.737Z" fill="#C5CFEC"/>
<path d="M575.248 408.794C575.248 408.794 575.449 408.693 575.549 408.794C575.549 408.794 575.549 408.894 575.549 408.994C575.549 408.994 575.449 408.794 575.349 408.794H575.248Z" fill="#C5CFEC"/>
<path d="M494.984 411.16C494.984 411.16 494.688 411.16 494.589 411.16C494.589 411.061 494.688 410.962 494.787 410.765C494.787 410.864 494.984 410.962 494.984 411.061V411.16Z" fill="#C5CFEC"/>
<path d="M342.938 228.053C342.938 228.053 342.938 228.053 342.839 228.053C342.839 227.855 342.839 227.855 342.938 228.053Z" fill="#C5CFEC"/>
<path d="M452.78 464.307L452.683 464.403L452.78 464.307Z" fill="#C5CFEC"/>
<path d="M230.43 544.768C229.148 545.556 227.867 545.458 226.486 545.458C211.005 545.458 195.623 544.768 180.241 543.683C175.705 543.289 171.169 542.697 166.831 540.922C188.228 540.232 209.428 540.725 230.529 544.768H230.43Z" fill="#C5CFEC"/>
<path d="M226.488 521.399C223.234 521.3 219.783 521.004 216.529 519.624C215.444 519.131 214.458 518.539 213.768 517.454C213.669 517.257 213.472 516.863 213.571 516.666C213.669 516.37 214.064 516.468 214.359 516.567C220.078 518.638 225.896 517.159 231.714 516.666C234.08 516.468 236.447 516.37 238.813 516.271C239.208 516.271 239.898 516.074 240.095 516.567C240.292 516.961 239.898 517.454 239.602 517.849C238.813 518.933 237.63 519.525 236.348 519.92C233.291 521.004 230.037 521.3 226.586 521.399H226.488Z" fill="#C5CFEC"/>
<path d="M152.14 543.387C149.28 543.387 146.125 542.894 143.265 541.711C141.589 541.021 141.589 540.725 142.871 539.64C145.829 537.175 149.182 536.978 152.731 537.767C154.999 538.26 157.07 539.147 159.141 540.133C160.422 540.725 160.225 541.316 159.141 541.908C157.07 543.19 154.703 543.289 152.041 543.289L152.14 543.387Z" fill="#C5CFEC"/>
<path d="M151.942 528.597C156.379 530.667 161.014 530.174 165.451 530.569C167.423 530.766 169.395 530.963 171.269 531.851C171.663 532.048 172.255 532.147 172.255 532.64C172.255 533.133 171.663 533.33 171.269 533.527C170.283 534.119 169.198 534.414 168.113 534.612C163.873 535.302 159.732 535.105 155.788 533.428C153.816 532.541 152.139 531.259 151.942 528.597Z" fill="#C5CFEC"/>
<path d="M227.966 549.007C225.994 551.078 223.923 551.374 221.853 551.473C218.402 551.67 215.049 551.177 211.598 550.98C209.922 550.98 208.344 550.881 206.668 550.98C206.273 550.98 205.78 551.374 205.583 550.881C205.386 550.487 205.682 550.092 205.978 549.796C207.161 547.824 208.837 546.937 211.105 546.937C213.57 546.937 216.035 547.726 218.402 548.219C221.458 548.909 224.515 549.796 228.065 549.007H227.966Z" fill="#C5CFEC"/>
<path d="M382.182 275.974C382.182 275.974 382.478 275.579 382.675 275.382C382.773 275.481 382.872 275.579 382.971 275.678C382.773 275.974 382.576 276.171 382.182 275.974Z" fill="#C5CFEC"/>
<path d="M382.185 275.974C382.185 275.974 382.386 276.074 382.185 276.174C382.185 276.174 382.085 276.174 381.985 276.174C381.985 276.174 382.085 275.974 382.185 275.974Z" fill="#C5CFEC"/>
<path d="M633.326 585.885C632.734 587.364 631.847 587.759 630.663 588.055C628.691 588.449 626.818 588.055 624.846 588.055C622.874 588.055 620.705 587.759 619.028 589.83C621.888 590.717 624.649 591.111 627.41 591.506C632.833 592.295 638.256 591.407 643.581 590.618C648.314 589.928 653.047 589.731 657.878 589.83C658.371 589.83 658.864 589.928 659.653 590.027C658.864 591.111 657.878 591.604 656.991 592.097C652.455 594.365 647.623 594.661 642.693 594.661C635.002 594.661 627.311 593.872 619.521 593.675C616.267 593.675 612.915 593.675 609.562 593.675C610.548 593.083 611.534 592.492 612.52 591.9C612.816 591.703 613.211 591.407 613.211 590.914C613.211 590.323 612.619 590.224 612.126 590.125C609.957 589.731 607.689 589.731 605.421 589.731C604.632 589.731 603.843 589.731 602.759 589.731C603.745 588.548 604.928 588.153 606.111 587.66C611.337 585.491 616.859 585.195 622.381 584.998C625.931 584.899 629.579 585.097 633.227 585.688L633.326 585.885Z" fill="#C5CFEC"/>
<path d="M710.04 520.511C681.543 524.85 652.85 527.315 623.959 526.428C652.554 522.681 681.149 519.723 710.04 520.511Z" fill="#C5CFEC"/>
<path d="M279.93 624.735C295.904 622.369 311.582 625.228 327.358 626.904C311.286 631.539 295.608 627.595 279.93 624.735Z" fill="#C5CFEC"/>
<path d="M670.104 559.262C668.428 563.206 664.977 565.08 660.638 564.784C655.412 564.488 650.679 562.516 645.848 560.84C641.904 559.558 638.058 558.079 633.818 558.375C635.987 557.586 638.255 557.586 640.523 557.586C647.82 557.783 655.018 559.262 662.315 559.558C664.878 559.656 667.343 559.656 670.104 559.163V559.262Z" fill="#C5CFEC"/>
<path d="M633.326 616.65C632.142 618.523 630.565 619.312 628.888 619.904C626.128 620.89 623.367 620.988 620.507 620.988C614.098 620.988 607.689 620.2 600.885 620.693C601.674 619.608 602.561 619.214 603.449 618.918C606.407 617.636 609.562 617.044 612.717 616.847C619.423 616.354 626.128 616.847 633.227 616.65H633.326Z" fill="#C5CFEC"/>
<path d="M618.535 532.738C616.168 535.4 613.111 536.288 609.956 536.485C602.955 536.978 595.954 536.189 588.953 536.485C598.419 531.752 608.477 532.738 618.535 532.738Z" fill="#C5CFEC"/>
<path d="M642.101 601.76C645.059 598.704 649.004 597.915 653.046 597.619C659.554 597.027 665.963 597.915 672.471 598.309C674.148 598.309 675.725 598.309 677.401 598.506C674.838 599.788 671.978 600.183 669.217 600.479C663.794 601.07 658.371 600.774 652.948 600.774C649.299 600.774 645.75 601.07 642.299 602.056C642.299 602.056 642.2 601.958 642.101 601.859V601.76Z" fill="#C5CFEC"/>
<path d="M643.58 608.466C642.101 610.734 640.129 611.522 637.96 612.114C633.917 613.1 629.775 612.903 625.634 612.804C620.901 612.607 616.168 612.311 610.942 612.607C613.9 610.339 616.858 609.649 619.915 609.452C623.169 609.156 626.522 609.55 629.775 609.846C634.311 610.142 638.847 609.945 643.58 608.663V608.466Z" fill="#C5CFEC"/>
<path d="M600.786 542.993C604.533 541.514 608.477 540.922 612.323 540.528C615.379 540.232 618.436 539.936 621.493 540.528C623.169 540.824 623.268 541.12 622.38 542.5C621.887 543.289 621.197 543.782 620.309 544.176C613.604 546.74 607.195 545.458 600.786 543.092V542.993Z" fill="#C5CFEC"/>
<path d="M626.62 627.299C623.662 627.102 620.31 626.905 616.957 626.707C616.07 626.707 615.084 626.707 614.098 626.707C613.703 626.707 613.013 627.102 612.816 626.707C612.52 626.017 613.309 625.721 613.802 625.524C615.577 624.637 617.45 624.341 619.422 624.045C624.155 623.454 628.79 623.355 633.424 624.341C633.917 624.44 634.804 624.341 634.903 625.031C634.903 625.721 634.114 626.017 633.621 626.313C631.452 627.398 629.184 627.398 626.522 627.398L626.62 627.299Z" fill="#C5CFEC"/>
<path d="M613.21 577.504C615.28 575.138 618.14 574.349 620.999 573.856C623.366 573.462 625.732 573.462 628.099 573.462C629.085 573.462 629.282 573.757 629.183 574.743C628.986 578.589 627.31 579.871 623.662 578.983C621.985 578.589 620.21 578.096 618.534 577.701C616.759 577.307 615.083 577.208 613.21 577.504Z" fill="#C5CFEC"/>
<path d="M588.263 610.635C591.221 613.1 591.221 615.467 588.263 617.439C586.587 618.622 584.713 619.312 582.939 620.101C581.657 620.693 580.375 621.284 579.093 621.876C578.6 622.073 578.206 623.059 577.515 622.172C576.924 621.482 576.825 620.693 577.318 619.904C577.811 619.115 578.6 618.524 579.389 618.03C581.065 616.946 582.84 616.058 584.516 614.974C586.192 613.889 587.672 612.706 588.263 610.537V610.635Z" fill="#C5CFEC"/>
<path d="M548.822 633.018C548.822 633.018 547.737 633.314 547.441 632.821C547.244 632.328 547.639 631.835 547.934 631.44C550.399 627.891 553.851 626.017 558.189 625.82C558.978 625.82 559.767 626.017 560.556 626.313C561.542 626.707 561.542 627.102 560.753 627.792C557.4 630.947 553.456 632.92 548.723 633.117L548.822 633.018Z" fill="#C5CFEC"/>
<path d="M676.416 516.37C677.303 515.384 678.289 515.088 679.177 514.891C683.712 513.511 688.248 513.215 692.981 513.708C693.573 513.708 694.46 513.708 694.657 514.497C694.855 515.285 694.263 515.778 693.671 516.271C692.291 517.356 690.615 517.455 688.938 517.455C684.797 517.652 680.853 516.567 676.416 516.469V516.37Z" fill="#C5CFEC"/>
<path d="M639.142 598.802C636.381 601.268 633.128 601.958 629.479 601.662C626.718 601.465 623.957 601.366 621.197 602.254C621.492 599.493 623.366 597.915 626.028 598.014C627.704 598.014 629.479 598.408 631.057 598.901C633.719 599.69 636.382 599.394 639.044 598.901L639.142 598.802Z" fill="#C5CFEC"/>
<path d="M590.531 569.122C593.883 566.756 597.433 564.882 601.772 565.277C602.856 565.277 603.645 565.868 604.138 566.854C605.223 568.728 604.73 569.615 602.659 569.615C598.715 569.615 594.672 569.615 590.728 569.615L590.531 569.221V569.122Z" fill="#C5CFEC"/>
<path d="M586.193 606.493C588.756 604.62 590.433 602.451 592.503 600.676C593.884 599.493 595.56 598.605 597.335 598.309C598.222 598.112 598.617 598.309 598.518 599.394C598.124 601.859 597.039 603.733 594.771 604.817C592.208 606 589.545 606.296 586.291 606.493H586.193Z" fill="#C5CFEC"/>
<path d="M592.603 528.498C593.49 526.131 595.068 524.948 597.336 524.948C600.294 524.948 603.055 526.033 606.013 526.427C606.802 526.526 606.604 527.019 606.309 527.413C605.717 528.399 604.83 528.695 603.745 528.793C602.069 528.991 600.491 528.892 598.815 528.695C596.744 528.399 594.673 528.399 592.504 528.498H592.603Z" fill="#C5CFEC"/>
<path d="M642.298 601.958C642.298 601.958 641.904 602.057 641.904 601.958C641.805 601.761 641.904 601.761 642.101 601.662C642.101 601.662 642.2 601.761 642.298 601.859V601.958Z" fill="#C5CFEC"/>
<path d="M497.055 594.858C497.055 594.858 496.858 595.055 496.66 594.957C496.66 594.858 496.759 594.661 496.858 594.562C496.858 594.562 496.956 594.759 497.055 594.759V594.858Z" fill="#C5CFEC"/>
<path d="M264.547 592.097C263.955 593.379 263.068 593.675 262.18 593.971C259.912 594.661 257.546 594.957 255.278 594.365C254.489 594.168 253.7 593.872 253.01 593.379C252.123 592.689 251.926 591.802 252.221 590.717C252.517 589.731 253.405 589.829 254.095 589.731C255.672 589.534 257.25 589.731 258.729 590.421C260.603 591.21 262.378 592.097 264.645 592.097H264.547Z" fill="#C5CFEC"/>
</g>
</svg>
