<svg width="54" height="54" viewBox="0 0 54 54" fill="none" xmlns="http://www.w3.org/2000/svg">
<path d="M27.5 12V42M31.2193 15.2143C30.0968 15.9174 28.8106 16.2879 27.5 16.2857C26.1894 16.2879 24.9032 15.9174 23.7807 15.2143M23.7807 38.7857C24.904 38.0846 26.1897 37.7143 27.5 37.7143C28.8103 37.7143 30.096 38.0846 31.2193 38.7857M40 19.5L15 34.5M39.1804 24.4554C38.0343 23.7948 37.0827 22.8226 36.4276 21.643C35.7725 20.4633 35.4387 19.1207 35.4618 17.7589M15.8196 29.5446C16.9657 30.2052 17.9173 31.1774 18.5724 32.357C19.2275 33.5367 19.5613 34.8793 19.5383 36.2411M15 19.5L40 34.5M15.8196 24.4554C16.9657 23.7948 17.9173 22.8226 18.5724 21.643C19.2275 20.4633 19.5613 19.1207 19.5383 17.7589M39.1804 29.5446C38.0343 30.2052 37.0827 31.1774 36.4276 32.357C35.7725 33.5367 35.4387 34.8793 35.4618 36.2411" stroke="#FFFFFF" stroke-width="4" stroke-linecap="round" stroke-linejoin="round"/>
<rect x="5" y="5" width="44" height="44" rx="2" stroke="#FFFFFF" stroke-width="4" stroke-linejoin="round"/>
</svg>
