<svg width="120" height="120" viewBox="0 0 120 120" fill="none" xmlns="http://www.w3.org/2000/svg">
<path fill-rule="evenodd" clip-rule="evenodd" d="M17 10C13.6863 10 11 12.6863 11 16V103C11 106.314 13.6863 109 17 109H104C107.314 109 110 106.314 110 103V16C110 12.6863 107.314 10 104 10H17ZM79.7822 56.8635C80.3662 55.6846 80.9579 54.4898 81.5406 53.2631C81.4016 53.2724 81.2632 53.2772 81.126 53.2821C80.7842 53.2941 80.4504 53.3058 80.1347 53.3853C79.86 53.4538 79.5911 53.5602 79.3229 53.6664C78.9615 53.8094 78.6012 53.952 78.2292 54.0008C76.414 54.2432 74.596 54.4604 72.7778 54.6776C71.637 54.8139 70.4962 54.9503 69.3561 55.0928C69.1021 55.1284 68.7684 55.2524 68.6313 55.4525C68.3728 55.4929 68.1263 55.6575 68.0044 55.9777C67.4844 57.3253 66.7796 58.5602 66.0742 59.7962C65.5101 60.7846 64.9456 61.7737 64.4749 62.8217C64.1922 63.4559 63.921 64.0919 63.6504 64.7264C62.9866 66.2828 62.3263 67.8312 61.5099 69.3254C60.5452 71.0959 59.3391 72.6374 58.1225 74.1925C57.849 74.542 57.5749 74.8924 57.303 75.246C56.854 75.829 56.3194 76.3708 55.7815 76.9161C54.8596 77.8506 53.9277 78.7952 53.3993 79.9741C53.3146 80.1635 53.2917 80.3687 53.3272 80.556C53.2695 80.7536 53.2462 80.9675 53.2677 81.1431C53.3033 81.4184 53.6699 81.901 53.8493 81.8762C54.665 81.7694 55.4974 81.8456 56.3293 81.9217C57.8461 82.0604 59.3612 82.1991 60.7706 81.2282C61.8663 80.4641 62.9288 79.6534 63.9551 78.7984C64.1126 78.6685 64.2729 78.5397 64.4338 78.4105C65.1637 77.8239 65.9049 77.2283 66.4499 76.483C66.9463 75.7923 67.3272 75.0065 67.7095 74.2178C67.9418 73.7385 68.1747 73.2581 68.4342 72.7974C68.8615 72.0415 69.3279 71.3046 69.7937 70.5686C70.0075 70.2309 70.2213 69.8931 70.431 69.554C70.5976 69.6193 70.7631 69.6873 70.9275 69.7582C71.0343 70.5008 71.0657 71.2644 71.0968 72.0206C71.1703 73.8047 71.242 75.5471 72.2978 76.8713C72.6737 75.6696 73.0339 74.4497 73.3961 73.2229C74.2305 70.3966 75.0759 67.533 76.149 64.7733C77.1921 62.0926 78.4674 59.518 79.7822 56.8635ZM81.5279 37.7466C76.0922 37.3164 69.6363 38.6972 66.5722 39.4664C66.422 39.4785 66.2719 39.491 66.122 39.504C66.0151 39.5604 65.907 39.6145 65.7978 39.6661C65.6254 39.7118 65.4729 39.7531 65.3421 39.7891L65.3409 39.7886C65.3383 39.7896 65.3357 39.7906 65.3331 39.7916C64.9803 39.8887 64.7872 39.9465 64.7872 39.9465L64.7866 40.0101C59.1402 42.3412 61.9537 43.6411 64.1147 44.2066C64.124 44.2105 64.1331 44.2144 64.1423 44.2182C64.3224 44.293 64.5164 44.329 64.695 44.3458C64.956 44.4032 65.1903 44.4481 65.3765 44.4811C65.6267 44.9973 65.8497 45.4955 66.0635 45.9735C66.5386 47.0353 66.9689 47.9972 67.5542 48.8335C69.2633 51.288 71.4208 53.3002 74.4817 52.9553C75.9757 52.7852 77.5425 52.0304 78.8123 51.1179C80.3853 49.9842 81.652 48.2565 81.8252 46.1593C81.9754 44.2876 81.9425 42.3944 81.9083 40.4203L81.9083 40.4187C81.8932 39.5469 81.8778 38.6585 81.8778 37.7501C81.7602 37.7485 81.6436 37.7473 81.5279 37.7466ZM39.6325 85.7727C39.6328 85.636 39.6371 85.4995 39.6454 85.3634L36.7045 86.4093C34.5439 87.1796 32.3986 86.5176 31.9161 84.9369L24.2973 60.0203C23.8147 58.4442 25.1758 56.5387 27.3364 55.7716L30.2674 54.7292C30.7607 54.5497 31.2572 54.4538 31.7336 54.4229V54.4291L40.8299 84.1812H69.3701C69.4877 84.6745 69.5573 85.2143 69.5573 85.7727V89.1057C69.5573 91.5541 68.3091 93.5446 66.7625 93.5446H42.4274C40.8853 93.5446 39.6325 91.5541 39.6325 89.1057V85.7727ZM74.0025 87.9746L74.2667 86.7248H89.577L89.6471 87.4174C89.8623 87.7362 89.9459 88.2101 89.9127 88.8689C89.8825 89.4855 89.9427 90.1071 90.0165 90.8677L90.0168 90.8702C90.0518 91.2312 90.0898 91.6236 90.1226 92.0617L91.815 77.3212L89.8075 73.4263C89.8076 74.1203 89.8086 74.8144 89.8097 75.5086C89.8122 77.2363 89.8148 78.9644 89.8028 80.6917C89.7967 82.079 89.0543 82.9158 87.7876 82.9436C86.8207 82.9657 85.8544 82.9815 84.8882 82.9974C83.0724 83.0272 81.2569 83.057 79.4387 83.1277C78.8799 83.1483 78.3245 83.2734 77.6694 83.421C77.3421 83.4947 76.989 83.5742 76.599 83.6489C76.5847 83.4789 76.5696 83.3083 76.5544 83.1371L76.5543 83.136C76.4656 82.1364 76.3753 81.1188 76.4334 80.0988C76.5064 68.9854 82.095 59.742 85.3995 55.2408C85.9726 54.3494 86.5761 53.4822 87.2617 52.7049C88.052 51.8218 89.0218 51.9904 90.0704 52.6632C90.1245 52.6971 90.1765 52.7362 90.2264 52.7737L90.2607 52.7993C90.3304 52.8518 90.3409 52.9274 90.3514 53.0027L90.3548 53.0265L90.4199 53.184L98.3296 72.8099C98.3296 72.8099 98.857 75.2088 98.9513 78.8744C98.8625 79.5789 98.7753 80.2841 98.6881 80.9895C98.4626 82.8131 98.237 84.6382 97.9816 86.4561C97.7629 88.0319 97.515 89.6048 97.261 91.2157C97.1414 91.9747 97.0203 92.7427 96.9005 93.5228H73.2706L73.2832 93.4262L72.8298 93.5224L73.9624 88.1643L73.9867 87.9764L74.0025 87.9746ZM60.1411 34.3088C58.8295 30.7143 64.3078 27.9535 64.3078 27.9535C72.3334 26.1749 83.16 31.6841 83.16 31.6841C85.6563 32.5456 85.1196 33.6236 85.1196 33.6236L81.5406 35.891C74.8823 35.526 64.6418 37.7454 64.6418 37.7454C64.6418 37.7454 61.4526 37.9094 60.1411 34.3088Z" fill="#000000"/>
</svg>
