<svg width="120" height="120" viewBox="0 0 120 120" fill="none" xmlns="http://www.w3.org/2000/svg">
<path d="M101.462 18H18.5385C16.5391 18 14.6217 18.795 13.208 20.21C11.7942 21.6251 11 23.5443 11 25.5455V93.4545C11 95.4557 11.7942 97.3749 13.208 98.79C14.6217 100.205 16.5391 101 18.5385 101H101.462C103.461 101 105.378 100.205 106.792 98.79C108.206 97.3749 109 95.4557 109 93.4545V25.5455C109 23.5443 108.206 21.6251 106.792 20.21C105.378 18.795 103.461 18 101.462 18ZM43.4154 67.8C44.2151 68.4004 44.7438 69.2941 44.8852 70.2846C45.0266 71.2752 44.769 72.2813 44.1692 73.0818C43.5694 73.8823 42.6765 74.4115 41.6869 74.553C40.6973 74.6945 39.692 74.4367 38.8923 73.8364L23.8154 62.5182C23.3473 62.1668 22.9673 61.7111 22.7056 61.1872C22.4439 60.6634 22.3077 60.0857 22.3077 59.5C22.3077 58.9143 22.4439 58.3367 22.7056 57.8128C22.9673 57.2889 23.3473 56.8332 23.8154 56.4818L38.8923 45.1636C39.692 44.5633 40.6973 44.3055 41.6869 44.447C42.6765 44.5885 43.5694 45.1177 44.1692 45.9182C44.769 46.7187 45.0266 47.7248 44.8852 48.7154C44.7438 49.7059 44.2151 50.5996 43.4154 51.2L32.3574 59.5L43.4154 67.8ZM71.1616 34.1284L56.0847 86.9466C55.9562 87.4314 55.7324 87.8857 55.4264 88.2829C55.1204 88.6801 54.7384 89.0123 54.3026 89.2599C53.8669 89.5076 53.3861 89.6658 52.8886 89.7253C52.391 89.7848 51.8866 89.7444 51.4048 89.6064C50.923 89.4684 50.4735 89.2357 50.0827 88.9218C49.6918 88.6079 49.3674 88.2192 49.1285 87.7783C48.8895 87.3374 48.7407 86.8533 48.6909 86.3542C48.6411 85.8551 48.6912 85.3511 48.8384 84.8716L63.9153 32.0534C64.2051 31.109 64.8534 30.316 65.721 29.8449C66.5886 29.3737 67.6062 29.2621 68.5552 29.5338C69.5041 29.8055 70.3088 30.439 70.7961 31.2982C71.2835 32.1573 71.4147 33.1735 71.1616 34.1284ZM96.1846 62.5182L81.1077 73.8364C80.308 74.4367 79.3027 74.6945 78.3131 74.553C77.3235 74.4115 76.4306 73.8823 75.8308 73.0818C75.231 72.2813 74.9734 71.2752 75.1148 70.2846C75.2562 69.2941 75.7849 68.4004 76.5846 67.8L87.6426 59.5L76.5846 51.2C76.1886 50.9027 75.855 50.5303 75.6028 50.104C75.3506 49.6777 75.1848 49.2058 75.1148 48.7154C75.0448 48.2249 75.072 47.7254 75.1948 47.2455C75.3177 46.7656 75.5338 46.3145 75.8308 45.9182C76.1278 45.5218 76.4998 45.1879 76.9258 44.9355C77.3517 44.6831 77.8231 44.5171 78.3131 44.447C78.8031 44.3769 79.3021 44.4042 79.7816 44.5271C80.2611 44.6501 80.7117 44.8664 81.1077 45.1636L96.1846 56.4818C96.6527 56.8332 97.0327 57.2889 97.2944 57.8128C97.5561 58.3367 97.6923 58.9143 97.6923 59.5C97.6923 60.0857 97.5561 60.6634 97.2944 61.1872C97.0327 61.7111 96.6527 62.1668 96.1846 62.5182Z" fill="#000000"/>
</svg>
