<svg width="120" height="120" viewBox="0 0 120 120" fill="none" xmlns="http://www.w3.org/2000/svg">
<path fill-rule="evenodd" clip-rule="evenodd" d="M53.0155 7.09583C54.8892 5.22453 57.3962 4.12343 60.0418 4.00976C62.6875 3.8961 65.2797 4.77812 67.3069 6.48181L67.9845 7.10112L78.0414 17.153H92.2587C94.9285 17.1535 97.4996 18.1628 99.4569 19.9787C101.414 21.7946 102.613 24.283 102.813 26.9454L102.845 27.7394V41.957L112.902 52.0142C114.775 53.8882 115.877 56.3963 115.99 59.0432C116.104 61.6901 115.221 64.2835 113.516 66.3112L112.897 66.9834L102.84 77.0406V91.2582C102.84 93.929 101.832 96.5015 100.016 98.4599C98.1997 100.418 95.7106 101.618 93.0474 101.818L92.2587 101.845H78.0467L67.9898 111.902C66.1158 113.775 63.6077 114.877 60.9609 114.99C58.314 115.104 55.7207 114.221 53.6931 112.516L53.0208 111.902L42.9639 101.845H28.7413C26.0705 101.845 23.4981 100.837 21.5398 99.0207C19.5814 97.2046 18.3819 94.7155 18.1816 92.0521L18.1551 91.2582V77.0406L8.09817 66.9834C6.22544 65.1094 5.12343 62.6013 5.00976 59.9544C4.89608 57.3074 5.779 54.7141 7.48417 52.6864L8.09817 52.0142L18.1551 41.957V27.7394C18.1556 25.0695 19.1649 22.4983 20.9808 20.5411C22.7966 18.5838 25.285 17.385 27.9474 17.1847L28.7413 17.153H42.9586L53.0155 7.09583ZM76.7975 43.5291L54.3335 65.9936L44.9753 56.6352C43.9821 55.6426 42.6353 55.0853 41.2312 55.0858C39.8271 55.0863 38.4807 55.6446 37.4882 56.6378C36.4957 57.631 35.9384 58.9778 35.9389 60.382C35.9394 61.7861 36.4976 63.1325 37.4908 64.1251L50.2155 76.85C50.7562 77.391 51.3982 77.8201 52.1047 78.1129C52.8113 78.4056 53.5687 78.5563 54.3335 78.5563C55.0984 78.5563 55.8557 78.4056 56.5623 78.1129C57.2689 77.8201 57.9109 77.391 58.4516 76.85L84.282 51.0137C85.2461 50.0154 85.7797 48.6783 85.7676 47.2905C85.7555 45.9026 85.1989 44.575 84.2175 43.5936C83.2361 42.6122 81.9085 42.0555 80.5207 42.0434C79.1328 42.0314 77.7958 42.5649 76.7975 43.5291Z" fill="#000000"/>
</svg>
