<svg width="54" height="54" viewBox="0 0 54 54" fill="none" xmlns="http://www.w3.org/2000/svg">
<path d="M8 43.875C8 45.1348 8.50044 46.343 9.39124 47.2338C10.282 48.1246 11.4902 48.625 12.75 48.625C14.0098 48.625 15.218 48.1246 16.1088 47.2338C16.9996 46.343 17.5 45.1348 17.5 43.875C17.5 42.6152 16.9996 41.407 16.1088 40.5162C15.218 39.6254 14.0098 39.125 12.75 39.125C11.4902 39.125 10.282 39.6254 9.39124 40.5162C8.50044 41.407 8 42.6152 8 43.875ZM34.125 43.875C34.125 45.1348 34.6254 46.343 35.5162 47.2338C36.407 48.1246 37.6152 48.625 38.875 48.625C40.1348 48.625 41.343 48.1246 42.2338 47.2338C43.1246 46.343 43.625 45.1348 43.625 43.875C43.625 42.6152 43.1246 41.407 42.2338 40.5162C41.343 39.6254 40.1348 39.125 38.875 39.125C37.6152 39.125 36.407 39.6254 35.5162 40.5162C34.6254 41.407 34.125 42.6152 34.125 43.875Z" stroke="#002E5F" stroke-width="4" stroke-linecap="round" stroke-linejoin="round"/>
<path d="M38.875 39.125H12.75V5.875H8" stroke="#002E5F" stroke-width="4" stroke-linecap="round" stroke-linejoin="round"/>
<path d="M12.75 15L46 17.375L43.625 34H12.75" stroke="#002E5F" stroke-width="4" stroke-linecap="round" stroke-linejoin="round"/>
<path d="M29 28.9999C35.6274 28.9999 40.9999 23.6274 40.9999 17C40.9999 10.3726 35.6274 5 29 5C22.3726 5 17 10.3726 17 17C17 23.6274 22.3726 28.9999 29 28.9999Z" stroke="#002E5F" stroke-width="4" stroke-linecap="round" stroke-linejoin="round"/>
<path d="M17 17H40.9999M33.6153 17C33.3886 21.3882 31.7723 25.5907 29 28.9999C26.2276 25.5907 24.6113 21.3882 24.3846 17C24.6113 12.6117 26.2276 8.40919 29 5C31.7723 8.40919 33.3886 12.6117 33.6153 17Z" stroke="#002E5F" stroke-width="4" stroke-linecap="round" stroke-linejoin="round"/>
</svg>
