<svg width="32" height="32" viewBox="0 0 32 32" fill="none" xmlns="http://www.w3.org/2000/svg">
<g id="icon">
<path id="Vector" d="M16 2.66663C13.171 2.66663 10.4579 3.79043 8.45751 5.79082C6.45712 7.79121 5.33331 10.5043 5.33331 13.3333C5.33331 20.5333 14.7333 28.6666 15.1333 29.0133C15.3748 29.2199 15.6822 29.3334 16 29.3334C16.3178 29.3334 16.6251 29.2199 16.8666 29.0133C17.3333 28.6666 26.6666 20.5333 26.6666 13.3333C26.6666 10.5043 25.5428 7.79121 23.5425 5.79082C21.5421 3.79043 18.829 2.66663 16 2.66663ZM16 26.2C13.16 23.5333 7.99998 17.7866 7.99998 13.3333C7.99998 11.2116 8.84283 9.17673 10.3431 7.67644C11.8434 6.17615 13.8782 5.33329 16 5.33329C18.1217 5.33329 20.1565 6.17615 21.6568 7.67644C23.1571 9.17673 24 11.2116 24 13.3333C24 17.7866 18.84 23.5466 16 26.2ZM16 7.99996C14.9451 7.99996 13.914 8.31275 13.0369 8.89879C12.1599 9.48482 11.4763 10.3178 11.0726 11.2923C10.669 12.2669 10.5633 13.3392 10.7691 14.3738C10.9749 15.4083 11.4829 16.3586 12.2287 17.1045C12.9746 17.8504 13.9249 18.3584 14.9595 18.5641C15.9941 18.7699 17.0664 18.6643 18.041 18.2607C19.0155 17.857 19.8484 17.1734 20.4345 16.2963C21.0205 15.4193 21.3333 14.3881 21.3333 13.3333C21.3333 11.9188 20.7714 10.5623 19.7712 9.56206C18.771 8.56186 17.4145 7.99996 16 7.99996ZM16 16C15.4726 16 14.957 15.8436 14.5185 15.5505C14.0799 15.2575 13.7381 14.8411 13.5363 14.3538C13.3345 13.8665 13.2817 13.3303 13.3846 12.8131C13.4874 12.2958 13.7414 11.8206 14.1144 11.4477C14.4873 11.0747 14.9625 10.8208 15.4797 10.7179C15.997 10.615 16.5332 10.6678 17.0205 10.8696C17.5077 11.0714 17.9242 11.4132 18.2172 11.8518C18.5102 12.2903 18.6666 12.8059 18.6666 13.3333C18.6666 14.0405 18.3857 14.7188 17.8856 15.2189C17.3855 15.719 16.7072 16 16 16Z" fill="#002E5F"/>
</g>
</svg>
