<?xml version="1.0" standalone="no"?><!DOCTYPE svg PUBLIC "-//W3C//DTD SVG 1.1//EN" "http://www.w3.org/Graphics/SVG/1.1/DTD/svg11.dtd"><svg t="1775185548096" class="icon" viewBox="0 0 1024 1024" version="1.1" xmlns="http://www.w3.org/2000/svg" p-id="4767" xmlns:xlink="http://www.w3.org/1999/xlink" width="200" height="200"><path d="M938.666667 889.813333a416 416 0 0 0-75.434667-230.826666 408.405333 408.405333 0 0 0-174.506667-140.544c55.466667-44.672 88.192-114.432 88.192-189.184 0-65.749333-25.6-127.317333-72.106666-173.312A242.389333 242.389333 0 0 0 533.290667 85.333333c-65.621333 0-127.061333 25.642667-173.013334 72.234667a243.072 243.072 0 0 0-70.485333 171.690667c0 74.752 32.725333 144.512 88.192 189.184a411.648 411.648 0 0 0-176.085333 142.592A403.328 403.328 0 0 0 128 894.08c-0.042667 11.776 4.693333 23.296 12.970667 31.573333 8.277333 8.277333 19.669333 13.013333 31.317333 13.013334h0.341333c11.690667 0 23.125333-4.693333 31.36-13.013334 8.32-8.277333 13.056-19.797333 13.013334-31.530666 0-84.736 32.938667-164.992 92.8-226.005334 60.074667-61.226667 139.477333-94.933333 223.530666-94.933333 174.421333 0 316.373333 142.08 316.373334 316.757333-0.085333 11.776 4.693333 23.253333 12.970666 31.573334 8.234667 8.277333 19.626667 13.013333 31.274667 13.013333h0.384A44.544 44.544 0 0 0 938.666667 889.941333zM692.053333 329.258667a159.061333 159.061333 0 0 1-158.72 158.976 159.018667 159.018667 0 0 1-158.72-158.976A159.018667 159.018667 0 0 1 533.333333 170.24a159.018667 159.018667 0 0 1 158.72 158.976z" fill="#002E5F" p-id="4768"></path></svg>