<?xml version="1.0" standalone="no"?><!DOCTYPE svg PUBLIC "-//W3C//DTD SVG 1.1//EN" "http://www.w3.org/Graphics/SVG/1.1/DTD/svg11.dtd"><svg t="1781602433666" class="icon" viewBox="0 0 1024 1024" version="1.1" xmlns="http://www.w3.org/2000/svg" p-id="4892" xmlns:xlink="http://www.w3.org/1999/xlink" width="200" height="200"><path d="M0 0h1024v1024H0z" fill="#002E5F" opacity=".01" p-id="4893"></path><path d="M34.133333 307.2a238.933333 238.933333 0 0 1 238.933334-238.933333h477.866666a238.933333 238.933333 0 0 1 238.933334 238.933333 68.266667 68.266667 0 0 1-68.266667 68.266667h-149.2992a68.266667 68.266667 0 0 1-62.805333-41.5744l-18.6368-43.8272a34.133333 34.133333 0 0 0-31.402667-20.821334h-294.912a34.133333 34.133333 0 0 0-31.402667 20.821334l-18.602666 43.8272A68.266667 68.266667 0 0 1 251.6992 375.466667H102.4a68.266667 68.266667 0 0 1-68.266667-68.266667z m238.933334-170.666667a170.666667 170.666667 0 0 0-170.666667 170.666667h149.2992l18.602667-43.8272a102.4 102.4 0 0 1 94.276266-62.3616h294.843734a102.4 102.4 0 0 1 94.276266 62.3616L772.3008 307.2H921.6a170.666667 170.666667 0 0 0-170.666667-170.666667H273.066667z m53.077333 222.890667A102.4 102.4 0 0 1 415.402667 307.2h193.194666a102.4 102.4 0 0 1 89.258667 52.224l201.796267 358.7072C950.852267 809.130667 885.077333 921.6 780.629333 921.6H243.370667c-104.448 0-170.222933-112.469333-119.022934-203.4688l201.796267-358.741333z m89.258667 16.042667a34.133333 34.133333 0 0 0-29.764267 17.408L183.842133 751.616C158.242133 797.0816 191.146667 853.333333 243.370667 853.333333h537.258666c52.224 0 85.0944-56.2176 59.528534-101.717333l-201.796267-358.741333a34.133333 34.133333 0 0 0-29.764267-17.408h-193.194666z m28.330666 273.066666a68.266667 68.266667 0 1 1 136.533334 0 68.266667 68.266667 0 0 1-136.533334 0z m68.266667-136.533333a136.533333 136.533333 0 1 0 0 273.066667 136.533333 136.533333 0 0 0 0-273.066667z" fill="#002E5F" p-id="4894"></path></svg>