<svg width="32" height="32" viewBox="0 0 32 32" fill="none" xmlns="http://www.w3.org/2000/svg">
<g id="icon">
<path id="Vector" fill-rule="evenodd" clip-rule="evenodd" d="M10.896 21.1054C16.0226 26.232 20.7733 26.7934 22.168 26.8454C23.8533 26.9067 25.5733 25.5307 26.3173 24.1214C25.1306 22.7294 23.5853 21.6494 21.892 20.4787C20.8946 21.476 19.6653 23.3294 18.0253 22.6654C17.0933 22.2907 14.792 21.2307 12.7813 19.2187C10.7693 17.208 9.71065 14.9067 9.33331 13.976C8.66931 12.3347 10.528 11.1014 11.5266 10.1027C10.356 8.38271 9.29465 6.79738 7.90531 5.67071C6.47598 6.41738 5.09198 8.12404 5.15465 9.83204C5.20665 11.2267 5.76798 15.9774 10.896 21.1054ZM22.0693 29.5094C20.1493 29.4387 14.708 28.688 9.00931 22.9894C3.31198 17.292 2.56131 11.852 2.48931 9.93071C2.38265 7.00271 4.62531 4.15871 7.21598 3.04804C7.52795 2.91333 7.86958 2.86204 8.20735 2.89921C8.54513 2.93638 8.86743 3.06072 9.14265 3.26004C11.2866 4.82404 12.7653 7.19338 14.036 9.04938C14.3003 9.43531 14.4214 9.90151 14.3783 10.3673C14.3352 10.8331 14.1306 11.2692 13.8 11.6L11.992 13.4094C12.412 14.336 13.2666 15.9334 14.6666 17.3334C16.0666 18.7334 17.664 19.588 18.592 20.008L20.3986 18.2C20.7308 17.8687 21.1687 17.6644 21.636 17.6227C22.1033 17.5811 22.5704 17.7047 22.956 17.972C24.8493 19.284 27.0733 20.7414 28.6946 22.8174C28.9102 23.0946 29.0472 23.4246 29.0916 23.7729C29.1359 24.1212 29.0858 24.475 28.9466 24.7974C27.8306 27.4014 25.0066 29.6174 22.0693 29.5094Z" fill="#002E5F"/>
</g>
</svg>
